<svg width="25" height="22" viewBox="0 0 25 22" fill="none" xmlns="http://www.w3.org/2000/svg">
<path d="M18.75 0H6.25C2.79822 0 0 2.46243 0 5.5V16.5C0 19.5376 2.79822 22 6.25 22H18.75C22.2018 22 25 19.5376 25 16.5V5.5C25 2.46243 22.2018 0 18.75 0Z" fill="white"/>
<path d="M8.50781 3V19H6.57031V5.03125H6.47656L2.57031 7.625V5.65625L6.57031 3H8.50781Z" fill="black"/>
<path d="M13.1094 19V17.5938L18.3906 11.8125C19.0104 11.1354 19.5208 10.5469 19.9219 10.0469C20.3229 9.54167 20.6198 9.06771 20.8125 8.625C21.0104 8.17708 21.1094 7.70833 21.1094 7.21875C21.1094 6.65625 20.974 6.16927 20.7031 5.75781C20.4375 5.34635 20.0729 5.02865 19.6094 4.80469C19.1458 4.58073 18.625 4.46875 18.0469 4.46875C17.4323 4.46875 16.8958 4.59635 16.4375 4.85156C15.9844 5.10156 15.6328 5.45312 15.3828 5.90625C15.138 6.35937 15.0156 6.89062 15.0156 7.5H13.1719C13.1719 6.5625 13.388 5.73958 13.8203 5.03125C14.2526 4.32292 14.8411 3.77083 15.5859 3.375C16.3359 2.97917 17.1771 2.78125 18.1094 2.78125C19.0469 2.78125 19.8776 2.97917 20.6016 3.375C21.3255 3.77083 21.8932 4.30469 22.3047 4.97656C22.7161 5.64844 22.9219 6.39583 22.9219 7.21875C22.9219 7.80729 22.8151 8.38281 22.6016 8.94531C22.3932 9.5026 22.0286 10.125 21.5078 10.8125C20.9922 11.4948 20.276 12.3281 19.3594 13.3125L15.7656 17.1562V17.2812H23.2031V19H13.1094Z" fill="black"/>
</svg>
