<svg width="25" height="22" viewBox="0 0 25 22" fill="none" xmlns="http://www.w3.org/2000/svg">
<path d="M18.75 0H6.25C2.79822 0 0 2.46243 0 5.5V16.5C0 19.5376 2.79822 22 6.25 22H18.75C22.2018 22 25 19.5376 25 16.5V5.5C25 2.46243 22.2018 0 18.75 0Z" fill="white"/>
<path d="M8.29297 3V19H6.35547V5.03125H6.26172L2.35547 7.625V5.65625L6.35547 3H8.29297Z" fill="black"/>
<path d="M18.1133 19.2188C16.9362 19.2188 15.9336 18.8984 15.1055 18.2578C14.2773 17.612 13.6445 16.6771 13.207 15.4531C12.7695 14.224 12.5508 12.7396 12.5508 11C12.5508 9.27083 12.7695 7.79427 13.207 6.57031C13.6497 5.34115 14.2852 4.40365 15.1133 3.75781C15.9466 3.10677 16.9466 2.78125 18.1133 2.78125C19.2799 2.78125 20.2773 3.10677 21.1055 3.75781C21.9388 4.40365 22.5742 5.34115 23.0117 6.57031C23.4544 7.79427 23.6758 9.27083 23.6758 11C23.6758 12.7396 23.457 14.224 23.0195 15.4531C22.582 16.6771 21.9492 17.612 21.1211 18.2578C20.293 18.8984 19.2904 19.2188 18.1133 19.2188ZM18.1133 17.5C19.2799 17.5 20.1862 16.9375 20.832 15.8125C21.4779 14.6875 21.8008 13.0833 21.8008 11C21.8008 9.61458 21.6523 8.4349 21.3555 7.46094C21.0638 6.48698 20.6419 5.74479 20.0898 5.23437C19.543 4.72396 18.8841 4.46875 18.1133 4.46875C16.957 4.46875 16.0534 5.03906 15.4023 6.17969C14.7513 7.3151 14.4258 8.92187 14.4258 11C14.4258 12.3854 14.5716 13.5625 14.8633 14.5312C15.1549 15.5 15.5742 16.237 16.1211 16.7422C16.6732 17.2474 17.3372 17.5 18.1133 17.5Z" fill="black"/>
</svg>

