<svg width="16" height="16" viewBox="0 0 16 16" fill="none" xmlns="http://www.w3.org/2000/svg">
<rect width="16" height="16" rx="4" fill="white"/>
<path d="M6.4517 11V10.6165L7.89205 9.03977C8.06108 8.85511 8.20028 8.6946 8.30966 8.55824C8.41903 8.42045 8.5 8.29119 8.55256 8.17045C8.60653 8.0483 8.63352 7.92045 8.63352 7.78693C8.63352 7.63352 8.59659 7.50071 8.52273 7.38849C8.45028 7.27628 8.35085 7.18963 8.22443 7.12855C8.09801 7.06747 7.95597 7.03693 7.7983 7.03693C7.63068 7.03693 7.48438 7.07173 7.35938 7.14134C7.2358 7.20952 7.13991 7.3054 7.07173 7.42898C7.00497 7.55256 6.97159 7.69744 6.97159 7.86364H6.46875C6.46875 7.60795 6.5277 7.38352 6.6456 7.19034C6.76349 6.99716 6.92401 6.84659 7.12713 6.73864C7.33168 6.63068 7.56108 6.5767 7.81534 6.5767C8.07102 6.5767 8.29759 6.63068 8.49503 6.73864C8.69247 6.84659 8.8473 6.99219 8.95952 7.17543C9.07173 7.35866 9.12784 7.5625 9.12784 7.78693C9.12784 7.94744 9.09872 8.1044 9.04048 8.25781C8.98366 8.4098 8.88423 8.57955 8.74219 8.76705C8.60156 8.95312 8.40625 9.1804 8.15625 9.44886L7.17614 10.4972V10.5312H9.20455V11H6.4517Z" fill="black"/>
</svg>
