<svg width="25" height="22" viewBox="0 0 25 22" fill="none" xmlns="http://www.w3.org/2000/svg">
<path d="M18.75 0H6.25C2.79822 0 0 2.46243 0 5.5V16.5C0 19.5376 2.79822 22 6.25 22H18.75C22.2018 22 25 19.5376 25 16.5V5.5C25 2.46243 22.2018 0 18.75 0Z" fill="white"/>
<path d="M7.99609 19V17.5938L13.2773 11.8125C13.8971 11.1354 14.4076 10.5469 14.8086 10.0469C15.2096 9.54167 15.5065 9.06771 15.6992 8.625C15.8971 8.17708 15.9961 7.70833 15.9961 7.21875C15.9961 6.65625 15.8607 6.16927 15.5898 5.75781C15.3242 5.34635 14.9596 5.02865 14.4961 4.80469C14.0326 4.58073 13.5117 4.46875 12.9336 4.46875C12.319 4.46875 11.7826 4.59635 11.3242 4.85156C10.8711 5.10156 10.5195 5.45312 10.2695 5.90625C10.0247 6.35937 9.90234 6.89062 9.90234 7.5H8.05859C8.05859 6.5625 8.27474 5.73958 8.70703 5.03125C9.13932 4.32292 9.72786 3.77083 10.4727 3.375C11.2227 2.97917 12.0638 2.78125 12.9961 2.78125C13.9336 2.78125 14.7643 2.97917 15.4883 3.375C16.2122 3.77083 16.7799 4.30469 17.1914 4.97656C17.6029 5.64844 17.8086 6.39583 17.8086 7.21875C17.8086 7.80729 17.7018 8.38281 17.4883 8.94531C17.2799 9.5026 16.9154 10.125 16.3945 10.8125C15.8789 11.4948 15.1628 12.3281 14.2461 13.3125L10.6523 17.1562V17.2812H18.0898V19H7.99609Z" fill="black"/>
</svg>
