<svg width="25" height="22" viewBox="0 0 25 22" fill="none" xmlns="http://www.w3.org/2000/svg">
<path d="M18.75 0H6.25C2.79822 0 0 2.46243 0 5.5V16.5C0 19.5376 2.79822 22 6.25 22H18.75C22.2018 22 25 19.5376 25 16.5V5.5C25 2.46243 22.2018 0 18.75 0Z" fill="white"/>
<path d="M13.0586 19.2188C12.0273 19.2188 11.1081 19.0417 10.3008 18.6875C9.4987 18.3333 8.86068 17.8411 8.38672 17.2109C7.91797 16.5755 7.66276 15.8385 7.62109 15H9.58984C9.63151 15.5156 9.80859 15.9609 10.1211 16.3359C10.4336 16.7057 10.8424 16.9922 11.3477 17.1953C11.8529 17.3984 12.4128 17.5 13.0273 17.5C13.7148 17.5 14.3242 17.3802 14.8555 17.1406C15.3867 16.901 15.8034 16.5677 16.1055 16.1406C16.4076 15.7135 16.5586 15.2188 16.5586 14.6562C16.5586 14.0677 16.4128 13.5495 16.1211 13.1016C15.8294 12.6484 15.4023 12.2943 14.8398 12.0391C14.2773 11.7839 13.5898 11.6562 12.7773 11.6562H11.4961V9.9375H12.7773C13.4128 9.9375 13.9701 9.82292 14.4492 9.59375C14.9336 9.36458 15.3112 9.04167 15.582 8.625C15.8581 8.20833 15.9961 7.71875 15.9961 7.15625C15.9961 6.61458 15.8763 6.14323 15.6367 5.74219C15.3971 5.34114 15.0586 5.02865 14.6211 4.80469C14.1888 4.58073 13.6784 4.46875 13.0898 4.46875C12.5378 4.46875 12.0169 4.57031 11.5273 4.77344C11.043 4.97135 10.6471 5.26042 10.3398 5.64062C10.0326 6.01563 9.86589 6.46875 9.83984 7H7.96484C7.99609 6.16146 8.2487 5.42708 8.72266 4.79687C9.19661 4.16146 9.81641 3.66667 10.582 3.3125C11.3529 2.95833 12.1992 2.78125 13.1211 2.78125C14.1107 2.78125 14.9596 2.98177 15.668 3.38281C16.3763 3.77865 16.9206 4.30208 17.3008 4.95312C17.681 5.60417 17.8711 6.30729 17.8711 7.0625C17.8711 7.96354 17.6341 8.73177 17.1602 9.36719C16.6914 10.0026 16.0534 10.4427 15.2461 10.6875V10.8125C16.2565 10.9792 17.0456 11.4089 17.6133 12.1016C18.181 12.7891 18.4648 13.6406 18.4648 14.6562C18.4648 15.526 18.2279 16.3073 17.7539 17C17.2852 17.6875 16.6445 18.2292 15.832 18.625C15.0195 19.0208 14.0951 19.2188 13.0586 19.2188Z" fill="black"/>
</svg>
