<svg width="25" height="22" viewBox="0 0 25 22" fill="none" xmlns="http://www.w3.org/2000/svg">
<path d="M18.75 0H6.25C2.79822 0 0 2.46243 0 5.5V16.5C0 19.5376 2.79822 22 6.25 22H18.75C22.2018 22 25 19.5376 25 16.5V5.5C25 2.46243 22.2018 0 18.75 0Z" fill="white"/>
<path d="M12.9639 19.2188C12.0472 19.2188 11.2217 19.0365 10.4873 18.6719C9.75293 18.3073 9.16439 17.8073 8.72168 17.1719C8.27897 16.5365 8.03678 15.8125 7.99512 15H9.87012C9.94303 15.724 10.2712 16.3229 10.8545 16.7969C11.443 17.2656 12.1462 17.5 12.9639 17.5C13.6201 17.5 14.2035 17.3464 14.7139 17.0391C15.2295 16.7318 15.6331 16.3099 15.9248 15.7734C16.2217 15.2318 16.3701 14.6198 16.3701 13.9375C16.3701 13.2396 16.2165 12.6172 15.9092 12.0703C15.6071 11.5182 15.1904 11.0833 14.6592 10.7656C14.1279 10.4479 13.5212 10.2865 12.8389 10.2812C12.3493 10.276 11.8467 10.3516 11.3311 10.5078C10.8154 10.6589 10.391 10.8542 10.0576 11.0938L8.24512 10.875L9.21387 3H17.5264V4.71875H10.8389L10.2764 9.4375H10.3701C10.6982 9.17708 11.1097 8.96094 11.6045 8.78906C12.0993 8.61719 12.6149 8.53125 13.1514 8.53125C14.1305 8.53125 15.0029 8.76563 15.7686 9.23438C16.5394 9.69792 17.1436 10.3333 17.5811 11.1406C18.0238 11.9479 18.2451 12.8698 18.2451 13.9062C18.2451 14.9271 18.016 15.8385 17.5576 16.6406C17.1045 17.4375 16.4795 18.0677 15.6826 18.5312C14.8857 18.9896 13.9795 19.2188 12.9639 19.2188Z" fill="black"/>
</svg>
