<svg width="100%" height="100%" viewBox="0 0 25 22" fill="none" xmlns="http://www.w3.org/2000/svg">
<path d="M18.75 0H6.25C2.79822 0 0 2.46243 0 5.5V16.5C0 19.5376 2.79822 22 6.25 22H18.75C22.2018 22 25 19.5376 25 16.5V5.5C25 2.46243 22.2018 0 18.75 0Z" fill="white"/>
<path d="M13.1045 19.2188C12.4482 19.2083 11.792 19.0833 11.1357 18.8438C10.4795 18.6042 9.88053 18.2005 9.33887 17.6328C8.7972 17.0599 8.3623 16.2865 8.03418 15.3125C7.70605 14.3333 7.54199 13.1042 7.54199 11.625C7.54199 10.2083 7.6748 8.95312 7.94043 7.85937C8.20605 6.76042 8.59147 5.83594 9.09668 5.08594C9.60189 4.33073 10.2113 3.75781 10.9248 3.36719C11.6436 2.97656 12.4535 2.78125 13.3545 2.78125C14.2503 2.78125 15.0472 2.96094 15.7451 3.32031C16.4482 3.67448 17.0212 4.16927 17.4639 4.80469C17.9066 5.4401 18.193 6.17187 18.3232 7H16.417C16.2399 6.28125 15.8962 5.6849 15.3857 5.21094C14.8753 4.73698 14.1982 4.5 13.3545 4.5C12.1149 4.5 11.1383 5.03906 10.4248 6.11719C9.71647 7.19531 9.3597 8.70833 9.35449 10.6562H9.47949C9.77116 10.2135 10.1175 9.83594 10.5186 9.52344C10.9248 9.20573 11.3727 8.96094 11.8623 8.78906C12.3519 8.61719 12.8701 8.53125 13.417 8.53125C14.3337 8.53125 15.1722 8.76042 15.9326 9.21875C16.693 9.67187 17.3024 10.2995 17.7607 11.1016C18.2191 11.8984 18.4482 12.8125 18.4482 13.8438C18.4482 14.8333 18.2269 15.7396 17.7842 16.5625C17.3415 17.3802 16.7191 18.0312 15.917 18.5156C15.1201 18.9948 14.1826 19.2292 13.1045 19.2188ZM13.1045 17.5C13.7607 17.5 14.3493 17.3359 14.8701 17.0078C15.3962 16.6797 15.8102 16.2396 16.1123 15.6875C16.4196 15.1354 16.5732 14.5208 16.5732 13.8438C16.5732 13.1823 16.4248 12.5807 16.1279 12.0391C15.8363 11.4922 15.4326 11.0573 14.917 10.7344C14.4066 10.4115 13.8232 10.25 13.167 10.25C12.6722 10.25 12.2113 10.349 11.7842 10.5469C11.3571 10.7396 10.9821 11.0052 10.6592 11.3438C10.3415 11.6823 10.0915 12.0703 9.90918 12.5078C9.72689 12.9401 9.63574 13.3958 9.63574 13.875C9.63574 14.5104 9.78418 15.1042 10.0811 15.6562C10.3831 16.2083 10.7946 16.6536 11.3154 16.9922C11.8415 17.3307 12.4378 17.5 13.1045 17.5Z" fill="#FF2B2B"/>
</svg>
