<svg width="25" height="22" viewBox="0 0 25 22" fill="none" xmlns="http://www.w3.org/2000/svg">
<path d="M18.75 0H6.25C2.79822 0 0 2.46243 0 5.5V16.5C0 19.5376 2.79822 22 6.25 22H18.75C22.2018 22 25 19.5376 25 16.5V5.5C25 2.46243 22.2018 0 18.75 0Z" fill="white"/>
<path d="M13.0029 19.2188C11.93 19.2188 10.9821 19.0286 10.1592 18.6484C9.34147 18.263 8.70345 17.7344 8.24512 17.0625C7.78678 16.3854 7.56022 15.6146 7.56543 14.75C7.56022 14.0729 7.69303 13.4479 7.96387 12.875C8.2347 12.2969 8.60449 11.8151 9.07324 11.4297C9.5472 11.0391 10.0758 10.7917 10.6592 10.6875V10.5938C9.89355 10.3958 9.28418 9.96615 8.83105 9.30469C8.37793 8.63802 8.15397 7.88021 8.15918 7.03125C8.15397 6.21875 8.3597 5.49219 8.77637 4.85156C9.19303 4.21094 9.76595 3.70573 10.4951 3.33594C11.2295 2.96615 12.0654 2.78125 13.0029 2.78125C13.93 2.78125 14.7581 2.96615 15.4873 3.33594C16.2165 3.70573 16.7894 4.21094 17.2061 4.85156C17.6279 5.49219 17.8415 6.21875 17.8467 7.03125C17.8415 7.88021 17.6097 8.63802 17.1514 9.30469C16.6982 9.96615 16.0967 10.3958 15.3467 10.5938V10.6875C15.9248 10.7917 16.4456 11.0391 16.9092 11.4297C17.3727 11.8151 17.7425 12.2969 18.0186 12.875C18.2946 13.4479 18.4352 14.0729 18.4404 14.75C18.4352 15.6146 18.2008 16.3854 17.7373 17.0625C17.279 17.7344 16.641 18.263 15.8232 18.6484C15.0107 19.0286 14.0706 19.2188 13.0029 19.2188ZM13.0029 17.5C13.7269 17.5 14.3519 17.3828 14.8779 17.1484C15.404 16.9141 15.8102 16.5833 16.0967 16.1562C16.3831 15.7292 16.529 15.2292 16.5342 14.6562C16.529 14.0521 16.3727 13.5182 16.0654 13.0547C15.7581 12.5911 15.3389 12.2266 14.8076 11.9609C14.2816 11.6953 13.68 11.5625 13.0029 11.5625C12.3206 11.5625 11.7113 11.6953 11.1748 11.9609C10.6436 12.2266 10.2243 12.5911 9.91699 13.0547C9.61491 13.5182 9.46647 14.0521 9.47168 14.6562C9.46647 15.2292 9.60449 15.7292 9.88574 16.1562C10.1722 16.5833 10.5811 16.9141 11.1123 17.1484C11.6436 17.3828 12.2738 17.5 13.0029 17.5ZM13.0029 9.90625C13.5758 9.90625 14.0837 9.79167 14.5264 9.5625C14.9743 9.33333 15.3258 9.01302 15.5811 8.60156C15.8363 8.1901 15.9665 7.70833 15.9717 7.15625C15.9665 6.61458 15.8389 6.14323 15.5889 5.74219C15.3389 5.33594 14.9925 5.02344 14.5498 4.80469C14.1071 4.58073 13.5915 4.46875 13.0029 4.46875C12.404 4.46875 11.8805 4.58073 11.4326 4.80469C10.9847 5.02344 10.6383 5.33594 10.3936 5.74219C10.1488 6.14323 10.029 6.61458 10.0342 7.15625C10.029 7.70833 10.1514 8.1901 10.4014 8.60156C10.6566 9.01302 11.0081 9.33333 11.4561 9.5625C11.904 9.79167 12.4196 9.90625 13.0029 9.90625Z" fill="#FF2B2B"/>
</svg>
