<svg width="25" height="22" viewBox="0 0 25 22" fill="none" xmlns="http://www.w3.org/2000/svg">
<path d="M18.75 0H6.25C2.79822 0 0 2.46243 0 5.5V16.5C0 19.5376 2.79822 22 6.25 22H18.75C22.2018 22 25 19.5376 25 16.5V5.5C25 2.46243 22.2018 0 18.75 0Z" fill="white"/>
<path d="M12.8857 2.78125C13.542 2.78646 14.1982 2.91146 14.8545 3.15625C15.5107 3.40104 16.1097 3.80729 16.6514 4.375C17.193 4.9375 17.6279 5.70573 17.9561 6.67969C18.2842 7.65365 18.4482 8.875 18.4482 10.3438C18.4482 11.7656 18.3128 13.0286 18.042 14.1328C17.7764 15.2318 17.391 16.1589 16.8857 16.9141C16.3857 17.6693 15.7764 18.2422 15.0576 18.6328C14.3441 19.0234 13.5368 19.2188 12.6357 19.2188C11.7399 19.2188 10.9404 19.0417 10.2373 18.6875C9.53939 18.3281 8.96647 17.8307 8.51855 17.1953C8.07585 16.5547 7.79199 15.8125 7.66699 14.9688H9.57324C9.74512 15.7031 10.0863 16.3099 10.5967 16.7891C11.1123 17.263 11.792 17.5 12.6357 17.5C13.8701 17.5 14.8441 16.9609 15.5576 15.8828C16.2764 14.8047 16.6357 13.2812 16.6357 11.3125H16.5107C16.2191 11.75 15.8727 12.1276 15.4717 12.4453C15.0706 12.763 14.6253 13.0078 14.1357 13.1797C13.6462 13.3516 13.1253 13.4375 12.5732 13.4375C11.6566 13.4375 10.8154 13.2109 10.0498 12.7578C9.28939 12.2995 8.68001 11.6719 8.22168 10.875C7.76855 10.0729 7.54199 9.15625 7.54199 8.125C7.54199 7.14583 7.76074 6.25 8.19824 5.4375C8.64095 4.61979 9.26074 3.96875 10.0576 3.48438C10.8597 3 11.8024 2.76562 12.8857 2.78125ZM12.8857 4.5C12.2295 4.5 11.6383 4.66406 11.1123 4.99219C10.5915 5.3151 10.1774 5.7526 9.87012 6.30469C9.56803 6.85156 9.41699 7.45833 9.41699 8.125C9.41699 8.79167 9.56283 9.39844 9.85449 9.94531C10.1514 10.487 10.555 10.9193 11.0654 11.2422C11.5811 11.5599 12.167 11.7188 12.8232 11.7188C13.318 11.7188 13.779 11.6224 14.2061 11.4297C14.6331 11.2318 15.0055 10.9635 15.3232 10.625C15.6462 10.2812 15.8988 9.89323 16.0811 9.46094C16.2633 9.02344 16.3545 8.56771 16.3545 8.09375C16.3545 7.46875 16.2035 6.88281 15.9014 6.33594C15.6045 5.78906 15.193 5.34635 14.667 5.00781C14.1462 4.66927 13.5524 4.5 12.8857 4.5Z" fill="black"/>
</svg>
