<svg width="100%" height="100%" viewBox="0 0 40 32" fill="none" xmlns="http://www.w3.org/2000/svg">
<path d="M21.9524 1H31.5185C31.9306 1 32.2646 1.3771 32.2646 1.84253V7.98573C32.2646 8.45098 31.9306 8.82817 31.5185 8.82817H21.9524C21.5402 8.82817 21.2061 8.45098 21.2061 7.98573V1.84253C21.2061 1.3771 21.5402 1 21.9524 1Z" fill="#FFC2B5"/>
<path d="M8.48165 1H18.0478C18.4598 1 18.7939 1.3771 18.7939 1.84253V7.98573C18.7939 8.45098 18.4598 8.82817 18.0478 8.82817H8.48165C8.06944 8.82817 7.73537 8.45098 7.73537 7.98573V1.84253C7.73537 1.3771 8.06944 1 8.48165 1Z" fill="#FFC2B5"/>
<path d="M15.3132 11.6425H24.8794C25.2914 11.6425 25.6255 12.0196 25.6255 12.485V18.6282C25.6255 19.0935 25.2914 19.4706 24.8794 19.4706H15.3132C14.901 19.4706 14.567 19.0935 14.567 18.6282V12.485C14.567 12.0196 14.901 11.6425 15.3132 11.6425Z" fill="#FFC2B5"/>
<path d="M1.74628 11.6425H11.3124C11.7244 11.6425 12.0585 12.0196 12.0585 12.485V18.6282C12.0585 19.0935 11.7244 19.4706 11.3124 19.4706H1.74628C1.33407 19.4706 1 19.0935 1 18.6282V12.485C1 12.0196 1.33407 11.6425 1.74628 11.6425Z" fill="#FFC2B5"/>
<path d="M28.6878 11.6425H38.2539C38.6659 11.6425 39 12.0196 39 12.485V18.6282C39 19.0935 38.6659 19.4706 38.2539 19.4706H28.6878C28.2756 19.4706 27.9415 19.0935 27.9415 18.6282V12.485C27.9415 12.0196 28.2756 11.6425 28.6878 11.6425Z" fill="#FFC2B5"/>
<path d="M8.48165 23.1718H18.0478C18.4598 23.1718 18.7939 23.5489 18.7939 24.0144V30.1576C18.7939 30.6228 18.4598 31 18.0478 31H8.48165C8.06944 31 7.73537 30.6228 7.73537 30.1576V24.0144C7.73537 23.5489 8.06944 23.1718 8.48165 23.1718Z" fill="#FFC2B5"/>
<path d="M21.9524 23.1718H31.5185C31.9306 23.1718 32.2646 23.5489 32.2646 24.0144V30.1576C32.2646 30.6228 31.9306 31 31.5185 31H21.9524C21.5402 31 21.2061 30.6228 21.2061 30.1576V24.0144C21.2061 23.5489 21.5402 23.1718 21.9524 23.1718Z" fill="#FFC2B5"/>
<path d="M21.9524 1H31.5185C31.9306 1 32.2646 1.3771 32.2646 1.84253V7.98573C32.2646 8.45098 31.9306 8.82817 31.5185 8.82817H21.9524C21.5402 8.82817 21.2061 8.45098 21.2061 7.98573V1.84253C21.2061 1.3771 21.5402 1 21.9524 1Z" stroke="black" stroke-width="0.1"/>
<path d="M8.48165 1H18.0478C18.4598 1 18.7939 1.3771 18.7939 1.84253V7.98573C18.7939 8.45098 18.4598 8.82817 18.0478 8.82817H8.48165C8.06944 8.82817 7.73537 8.45098 7.73537 7.98573V1.84253C7.73537 1.3771 8.06944 1 8.48165 1Z" stroke="black" stroke-width="0.1"/>
<path d="M15.3132 11.6425H24.8794C25.2914 11.6425 25.6255 12.0196 25.6255 12.485V18.6282C25.6255 19.0935 25.2914 19.4706 24.8794 19.4706H15.3132C14.901 19.4706 14.567 19.0935 14.567 18.6282V12.485C14.567 12.0196 14.901 11.6425 15.3132 11.6425Z" stroke="black" stroke-width="0.1"/>
<path d="M1.74628 11.6425H11.3124C11.7244 11.6425 12.0585 12.0196 12.0585 12.485V18.6282C12.0585 19.0935 11.7244 19.4706 11.3124 19.4706H1.74628C1.33407 19.4706 1 19.0935 1 18.6282V12.485C1 12.0196 1.33407 11.6425 1.74628 11.6425Z" stroke="black" stroke-width="0.1"/>
<path d="M28.6878 11.6425H38.2539C38.6659 11.6425 39 12.0196 39 12.485V18.6282C39 19.0935 38.6659 19.4706 38.2539 19.4706H28.6878C28.2756 19.4706 27.9415 19.0935 27.9415 18.6282V12.485C27.9415 12.0196 28.2756 11.6425 28.6878 11.6425Z" stroke="black" stroke-width="0.1"/>
<path d="M8.48165 23.1718H18.0478C18.4598 23.1718 18.7939 23.5489 18.7939 24.0144V30.1576C18.7939 30.6228 18.4598 31 18.0478 31H8.48165C8.06944 31 7.73537 30.6228 7.73537 30.1576V24.0144C7.73537 23.5489 8.06944 23.1718 8.48165 23.1718Z" stroke="black" stroke-width="0.1"/>
<path d="M21.9524 23.1718H31.5185C31.9306 23.1718 32.2646 23.5489 32.2646 24.0144V30.1576C32.2646 30.6228 31.9306 31 31.5185 31H21.9524C21.5402 31 21.2061 30.6228 21.2061 30.1576V24.0144C21.2061 23.5489 21.5402 23.1718 21.9524 23.1718Z" stroke="black" stroke-width="0.1"/>
</svg>
