<svg width="40" height="32" viewBox="0 0 40 32" fill="none" xmlns="http://www.w3.org/2000/svg">
<g clip-path="url(#clip0_2_73)">
<mask id="mask0_2_73" style="mask-type:luminance" maskUnits="userSpaceOnUse" x="0" y="0" width="40" height="32">
<path d="M40 0H0V32H40V0Z" fill="white"/>
</mask>
<g mask="url(#mask0_2_73)">
<mask id="mask1_2_73" style="mask-type:luminance" maskUnits="userSpaceOnUse" x="0" y="0" width="40" height="32">
<path d="M39.1836 0H0.816326C0.365481 0 0 0.447715 0 1V31C0 31.5523 0.365481 32 0.816326 32H39.1836C39.6346 32 40 31.5523 40 31V1C40 0.447715 39.6346 0 39.1836 0Z" fill="white"/>
</mask>
<g mask="url(#mask1_2_73)">
<path d="M7.43044 0.0499992H17.3725C17.8009 0.0499992 18.1481 0.475329 18.1481 0.999999V7.92674C18.1481 8.45139 17.8009 8.87674 17.3725 8.87674H7.43044C7.00214 8.87674 6.65493 8.45139 6.65493 7.92674V0.999999C6.65493 0.475329 7.00214 0.0499992 7.43044 0.0499992Z" fill="#FFC2B5" stroke="black" stroke-width="0.1"/>
<path d="M22.0761 0.0499992H32.0181C32.4463 0.0499992 32.7935 0.475329 32.7935 0.999999V7.92674C32.7935 8.45139 32.4463 8.87674 32.0181 8.87674H22.0761C21.6477 8.87674 21.3005 8.45139 21.3005 7.92674V0.999999C21.3005 0.475329 21.6477 0.0499992 22.0761 0.0499992Z" fill="#FFC2B5" stroke="black" stroke-width="0.1"/>
<path d="M14.9894 10.9173H24.9315C25.3599 10.9173 25.707 11.3427 25.707 11.8673V18.7941C25.707 19.3187 25.3599 19.7442 24.9315 19.7442H14.9894C14.5612 19.7442 14.2139 19.3187 14.2139 18.7941V11.8673C14.2139 11.3427 14.5612 10.9173 14.9894 10.9173Z" fill="#FFC2B5" stroke="black" stroke-width="0.1"/>
<path d="M0.816324 10.9173H10.7584C11.1867 10.9173 11.5339 11.3427 11.5339 11.8673V18.7941C11.5339 19.3187 11.1867 19.7442 10.7584 19.7442H0.816324C0.388022 19.7442 0.0408134 19.3187 0.0408134 18.7941V11.8673C0.0408134 11.3427 0.388022 10.9173 0.816324 10.9173Z" fill="#FFC2B5" stroke="black" stroke-width="0.1"/>
<path d="M29.1626 10.9173H39.1045C39.5328 10.9173 39.8801 11.3427 39.8801 11.8673V18.7941C39.8801 19.3187 39.5329 19.7442 39.1045 19.7442H29.1626C28.7343 19.7442 28.3871 19.3187 28.3871 18.7941V11.8673C28.3871 11.3427 28.7343 10.9173 29.1626 10.9173Z" fill="#FFC2B5" stroke="black" stroke-width="0.1"/>
<path d="M7.43044 22.949H17.3725C17.8009 22.949 18.1481 23.3742 18.1481 23.899V30.8258C18.1481 31.3504 17.8009 31.7757 17.3725 31.7757H7.43044C7.00214 31.7757 6.65493 31.3504 6.65493 30.8258V23.899C6.65493 23.3742 7.00214 22.949 7.43044 22.949Z" fill="#FFC2B5" stroke="black" stroke-width="0.1"/>
<path d="M22.0761 22.949H32.0181C32.4463 22.949 32.7935 23.3742 32.7935 23.899V30.8258C32.7935 31.3504 32.4463 31.7757 32.0181 31.7757H22.0761C21.6477 31.7757 21.3005 31.3504 21.3005 30.8258V23.899C21.3005 23.3742 21.6477 22.949 22.0761 22.949Z" fill="#FFC2B5" stroke="black" stroke-width="0.1"/>
</g>
</g>
</g>
<defs>
<clipPath id="clip0_2_73">
<rect width="40" height="32" fill="white"/>
</clipPath>
</defs>
</svg>
