<svg width="40" height="32" viewBox="0 0 40 32" fill="none" xmlns="http://www.w3.org/2000/svg">
<g clip-path="url(#clip0_2_106)">
<mask id="mask0_2_106" style="mask-type:luminance" maskUnits="userSpaceOnUse" x="0" y="0" width="40" height="32">
<path d="M40 0H0V32H40V0Z" fill="white"/>
</mask>
<g mask="url(#mask0_2_106)">
<mask id="mask1_2_106" style="mask-type:luminance" maskUnits="userSpaceOnUse" x="0" y="0" width="40" height="32">
<path d="M40 0H0V32H40V0Z" fill="white"/>
</mask>
<g mask="url(#mask1_2_106)">
<path d="M11.1539 22.7026V29.4054C11.1539 30.5995 12.8759 31.5675 15 31.5675H22.3077C24.4318 31.5675 26.1538 30.5995 26.1538 29.4054V19.2432C26.1538 18.0491 27.8758 17.0811 30 17.0811H35.7692C37.8933 17.0811 39.6153 16.113 39.6153 14.9189V7.13514C39.6153 5.94102 37.8933 4.97297 35.7692 4.97297H34.6153C32.4912 4.97297 30.7692 5.94102 30.7692 7.13514V12C30.7692 12.7164 29.7745 13 28.5 13C27.2255 13 26.1538 12.7164 26.1538 12V2.5946C26.1538 1.40047 24.4318 0.43243 22.3077 0.43243H15C12.8759 0.43243 11.1539 1.40047 11.1539 2.5946V17.0811C11.1539 17.7378 10.1683 18 9 18C7.83168 18 6.92308 17.7378 6.92308 17.0811V15.8919C6.92308 14.8769 5.4594 14.054 3.65385 14.054C1.8483 14.054 0.384617 14.8769 0.384617 15.8919V18.3783C0.384617 19.5726 1.87583 21 4 21H7C9.12415 21 11.1539 21.5086 11.1539 22.7026Z" fill="#C7CFC1" stroke="black" stroke-width="0.3"/>
<path d="M15.3846 0.864864V31.1351" stroke="#808379" stroke-width="0.8" stroke-linecap="round"/>
<path d="M18.4615 0.864864V31.1351" stroke="#808379" stroke-width="0.8" stroke-linecap="round"/>
<path d="M21.5385 0.864864V31.1351" stroke="#808379" stroke-width="0.8" stroke-linecap="round"/>
<path d="M24.6153 1.29729V30.7026" stroke="#808379" stroke-width="0.8" stroke-linecap="round"/>
<path d="M12.3077 1.72974V30.2703" stroke="#808379" stroke-width="0.8" stroke-linecap="round"/>
<path d="M4.61538 19.2865C4.44545 19.2865 4.30768 19.3639 4.30768 19.4594C4.30768 19.555 4.44545 19.6325 4.61538 19.6325V19.2865ZM4.61538 19.6325H12.3077V19.2865H4.61538V19.6325Z" fill="#808379"/>
<path d="M3.07692 14.7026V19.8919" stroke="#808379" stroke-width="0.8" stroke-linecap="round"/>
<path d="M4.92307 14.7026C4.92307 14.6071 4.78532 14.5297 4.61538 14.5297C4.44545 14.5297 4.30768 14.6071 4.30768 14.7026H4.92307ZM4.30768 14.7026V19.4594H4.92307V14.7026H4.30768Z" fill="#808379"/>
<path d="M36.923 5.62162V16.4324" stroke="#808379" stroke-width="0.8" stroke-linecap="round"/>
<path d="M33.8462 15.7406C34.016 15.7406 34.1538 15.6631 34.1538 15.5675C34.1538 15.472 34.016 15.3946 33.8462 15.3946V15.7406ZM24.6153 15.7406H33.8462V15.3946H24.6153V15.7406Z" fill="#808379"/>
<path d="M33.8462 5.62162V15.5675" stroke="#808379" stroke-width="0.8" stroke-linecap="round"/>
</g>
</g>
</g>
<defs>
<clipPath id="clip0_2_106">
<rect width="40" height="32" fill="white"/>
</clipPath>
</defs>
</svg>
