<svg width="105" height="91" viewBox="0 0 105 91" fill="none" xmlns="http://www.w3.org/2000/svg">
<path d="M42.8375 86.5468C41.1046 85.3858 36.2593 82.6618 34.1046 81.5848C29.8579 79.4618 25.5606 76.5008 20.6971 75.5658C17.239 74.9008 13.9724 73.5048 10.4849 72.9018C9.53559 72.7378 2.24079 72.2538 2.07349 71.6678C1.70609 70.3828 2.77759 68.7488 3.92349 68.2638C5.44429 67.6208 6.77549 66.3068 8.24019 65.5018C10.1116 64.4718 12.3931 64.3668 14.481 64.3668C24.1231 64.3668 35.726 65.2438 42.5522 73.2468C44.5853 75.6308 47.7816 79.3388 47.7816 82.7928C47.7816 84.7108 48.8624 90.2758 46.0056 88.6888C43.5926 87.3478 41.6227 85.2538 38.9014 84.3468" fill="#FFA500"/>
<path d="M42.8375 86.5468C41.1046 85.3858 36.2593 82.6618 34.1046 81.5848C29.8579 79.4618 25.5606 76.5008 20.6971 75.5658C17.239 74.9008 13.9724 73.5048 10.4849 72.9018C9.53559 72.7378 2.24079 72.2538 2.07349 71.6678C1.70609 70.3828 2.77759 68.7488 3.92349 68.2638C5.44429 67.6208 6.77549 66.3068 8.24019 65.5018C10.1116 64.4718 12.3931 64.3668 14.481 64.3668C24.1231 64.3668 35.726 65.2438 42.5522 73.2468C44.5853 75.6308 47.7816 79.3388 47.7816 82.7928C47.7816 84.7108 48.8624 90.2758 46.0056 88.6888C43.5926 87.3478 41.6227 85.2538 38.9014 84.3468" stroke="black" stroke-width="3" stroke-linecap="round"/>
<path d="M52.45 69.2808C51.1495 69.2808 49.849 69.2808 48.5484 69.2808C46.2306 69.2808 44.1082 67.7928 42.2315 66.4938C40.5815 65.3508 39.2496 64.0448 37.9583 62.5918C35.9331 60.3138 42.9145 61.2938 43.532 61.4768C44.7377 61.8348 47.4307 62.0328 48.5484 62.5918C49.7726 63.2038 46.7699 62.0488 46.3189 61.8488C44.9783 61.2528 43.3454 60.6508 42.2315 59.7848C40.9886 58.8178 39.5456 57.9168 38.2473 57.0178C36.5954 55.8748 35.7973 54.4198 34.5315 53.0138C33.2515 51.5908 36.8928 51.4448 37.5867 51.4448C39.6758 51.4448 43.5973 53.3708 45.39 54.3668C48.6437 56.1748 42.4097 53.0848 41.22 52.5588C39.2633 51.6948 37.9152 50.1408 36.1004 49.1328C34.8232 48.4228 33.272 47.3198 32.5703 46.0568C31.9134 44.8738 31.2355 42.1548 33.107 42.1548C35.3939 42.1548 36.8899 42.4008 38.8872 43.4758C39.7517 43.9418 45.7268 47.3308 43.532 45.6848C41.5862 44.2258 32.5408 39.9218 32.3845 36.9528C32.3128 35.5898 32.1425 32.4948 34.0773 32.1428C35.0577 31.9648 36.2062 32.0778 37.1325 32.4108C37.8301 32.6618 37.9679 33.5418 38.5157 33.9798C39.6128 34.8578 40.3492 35.3318 41.6741 35.9208C42.6776 36.3668 42.3473 36.5298 41.4677 36.2098C40.1756 35.7398 39.0363 34.7288 37.9583 33.8978C35.2625 31.8178 32.739 27.0708 36.1004 24.4018C37.325 23.4288 40.225 22.2268 41.3025 24.1128C41.423 24.3228 42.0729 25.0988 42.0457 24.6908C41.9967 23.9558 41.7076 24.1128 41.22 23.7618C41.22 21.3258 42.952 24.7888 40 21.3668C38.8872 18.8668 35.6127 16.3278 37.9999 13.8278C40.3871 11.3278 41.5989 9.48479 43.3669 12.2628C43.5929 12.6178 44.7142 14.2328 44.5642 13.9148C44.0969 12.9218 43.9499 14.0238 43.8287 12.9318C43.5823 10.7148 40 7.86679 41.22 4.38549C39.5477 2.23549 42.768 2.76689 44.2752 2.76689C46.5129 2.76689 47.4138 3.35169 48.3626 5.36799C49.0437 6.81529 49.0694 9.89779 48.7136 11.4988C48.5798 12.1008 47.6195 15.1888 47.6195 13.3568C47.6195 10.7688 49.0831 8.25059 50 5.86679C50.5619 4.40579 54.8525 5.13649 55.5 6.36679C56.5005 8.26779 54.308 11.2878 54.308 13.3568C54.308 14.6848 51.8469 15.1428 50.7779 15.3798C50.0743 15.5368 47.0986 15.7728 47.991 15.7728C50.1372 15.7728 52.1459 15.0288 54.308 15.0288C56.1911 15.0288 56.5375 15.6338 56.5375 17.4448C56.5375 19.2548 54.1916 19.4758 53.0074 20.3968C50.7415 22.1588 41.7812 22.2928 44.6468 22.4608C48.5608 22.6908 51.5953 21.6088 51.3353 26.5478C51.186 29.3838 45.9389 32.1428 43.3669 32.1428C42.8594 32.1428 48.5094 31.1248 49.3948 31.8328C50.1939 32.4728 51.3353 33.1008 51.3353 34.3518C51.3353 35.6518 51.3353 36.9528 51.3353 38.2528C51.3353 39.8028 50.2028 40.7708 49.2709 41.9688C48.2786 43.2448 46.0311 43.8708 45.39 45.3128C44.944 46.3168 44.2049 46.5718 45.7615 46.1598C46.722 45.9058 48.0852 46.1488 48.92 45.6848C50.3212 44.9068 51.7835 45.6718 52.3675 46.9858C52.6158 47.5438 52.7489 50.5138 52.3675 50.9898C51.8809 51.5988 49.1332 53.6208 48.92 54.3668C48.553 55.6508 46.9595 57.0178 48.8994 56.7408C50.7623 56.4748 52.9045 55.2058 54.6795 56.1928C56.2113 57.0438 56.1659 58.0198 56.1659 59.6188C56.1659 62.6738 55.6673 65.5698 53.9364 68.1658" fill="#FFA500"/>
<path d="M52.45 69.2808C51.1495 69.2808 49.849 69.2808 48.5484 69.2808C46.2306 69.2808 44.1082 67.7928 42.2315 66.4938C40.5815 65.3508 39.2496 64.0448 37.9583 62.5918C35.9331 60.3138 42.9145 61.2938 43.532 61.4768C44.7377 61.8348 47.4307 62.0328 48.5484 62.5918C49.7726 63.2038 46.7699 62.0488 46.3189 61.8488C44.9783 61.2528 43.3454 60.6508 42.2315 59.7848C40.9886 58.8178 39.5456 57.9168 38.2473 57.0178C36.5954 55.8748 35.7973 54.4198 34.5315 53.0138C33.2515 51.5908 36.8928 51.4448 37.5867 51.4448C39.6758 51.4448 43.5973 53.3708 45.39 54.3668C48.6437 56.1748 42.4097 53.0848 41.22 52.5588C39.2633 51.6948 37.9152 50.1408 36.1004 49.1328C34.8232 48.4228 33.272 47.3198 32.5703 46.0568C31.9134 44.8738 31.2355 42.1548 33.107 42.1548C35.3939 42.1548 36.8899 42.4008 38.8872 43.4758C39.7517 43.9418 45.7268 47.3308 43.532 45.6848C41.5862 44.2258 32.5408 39.9218 32.3845 36.9528C32.3128 35.5898 32.1425 32.4948 34.0773 32.1428C35.0577 31.9648 36.2062 32.0778 37.1325 32.4108C37.8301 32.6618 37.9679 33.5418 38.5157 33.9798C39.6128 34.8578 40.3492 35.3318 41.6741 35.9208C42.6776 36.3668 42.3473 36.5298 41.4677 36.2098C40.1756 35.7398 39.0363 34.7288 37.9583 33.8978C35.2625 31.8178 32.739 27.0708 36.1004 24.4018C37.325 23.4288 40.225 22.2268 41.3025 24.1128C41.423 24.3228 42.0729 25.0988 42.0457 24.6908C41.9967 23.9558 41.7076 24.1128 41.22 23.7618C41.22 21.3258 42.952 24.7888 40 21.3668C38.8872 18.8668 35.6127 16.3278 37.9999 13.8278C40.3871 11.3278 41.5989 9.48479 43.3669 12.2628C43.5929 12.6178 44.7142 14.2328 44.5642 13.9148C44.0969 12.9218 43.9499 14.0238 43.8287 12.9318C43.5823 10.7148 40 7.86679 41.22 4.38549C39.5477 2.23549 42.768 2.76689 44.2752 2.76689C46.5129 2.76689 47.4138 3.35169 48.3626 5.36799C49.0437 6.81529 49.0694 9.89779 48.7136 11.4988C48.5798 12.1008 47.6195 15.1888 47.6195 13.3568C47.6195 10.7688 49.0831 8.25059 50 5.86679C50.5619 4.40579 54.8525 5.13649 55.5 6.36679C56.5005 8.26779 54.308 11.2878 54.308 13.3568C54.308 14.6848 51.8469 15.1428 50.7779 15.3798C50.0743 15.5368 47.0986 15.7728 47.991 15.7728C50.1372 15.7728 52.1459 15.0288 54.308 15.0288C56.1911 15.0288 56.5375 15.6338 56.5375 17.4448C56.5375 19.2548 54.1916 19.4758 53.0074 20.3968C50.7415 22.1588 41.7812 22.2928 44.6468 22.4608C48.5608 22.6908 51.5953 21.6088 51.3353 26.5478C51.186 29.3838 45.9389 32.1428 43.3669 32.1428C42.8594 32.1428 48.5094 31.1248 49.3948 31.8328C50.1939 32.4728 51.3353 33.1008 51.3353 34.3518C51.3353 35.6518 51.3353 36.9528 51.3353 38.2528C51.3353 39.8028 50.2028 40.7708 49.2709 41.9688C48.2786 43.2448 46.0311 43.8708 45.39 45.3128C44.944 46.3168 44.2049 46.5718 45.7615 46.1598C46.722 45.9058 48.0852 46.1488 48.92 45.6848C50.3212 44.9068 51.7835 45.6718 52.3675 46.9858C52.6158 47.5438 52.7489 50.5138 52.3675 50.9898C51.8809 51.5988 49.1332 53.6208 48.92 54.3668C48.553 55.6508 46.9595 57.0178 48.8994 56.7408C50.7623 56.4748 52.9045 55.2058 54.6795 56.1928C56.2113 57.0438 56.1659 58.0198 56.1659 59.6188C56.1659 62.6738 55.6673 65.5698 53.9364 68.1658" stroke="black" stroke-width="3" stroke-linecap="round"/>
<path d="M53.5648 68.5368C51.4793 66.4518 49.5534 63.1768 48.5484 60.3628C47.9334 58.6408 46.8991 56.9348 46.5047 55.1598C46.0553 53.1378 44.7977 50.9638 44.6468 48.9258C44.5687 47.8718 43.9335 46.9478 43.9036 45.8708C43.8726 44.7548 43.7677 43.5178 43.4494 42.4438C42.5704 39.4768 42.7889 36.1328 42.7889 33.0508C42.7889 30.3898 42.3289 27.2528 42.9746 24.6698C43.9454 20.7868 44.8649 16.9758 46.1331 13.1718" stroke="black" stroke-width="3" stroke-linecap="round"/>
<path d="M59.8605 64.5458C62.3634 64.5458 65.0963 63.8868 67.366 62.8778C69.718 61.8328 69.377 57.6408 66.774 57.0618C65.6186 56.8058 58.9763 57.4078 62.7136 56.1618C64.9012 55.4328 67.372 55.2608 69.517 54.6478C71.479 54.0868 73.131 52.4308 72.195 50.3248C71.525 48.8168 68.081 47.9538 66.379 47.9538C63.4189 47.9538 66.31 47.5938 67.849 47.2518C70.169 46.7368 72.389 46.3208 74.477 45.2768C75.955 44.5378 79.153 42.2198 76.65 40.2728C75.398 39.2988 71.176 38.8508 69.737 39.5708C66.207 41.3348 70.676 39.5618 72.107 38.8458C74.021 37.8898 77.825 37.2508 79.217 35.5108C79.965 34.5768 80.798 34.5248 80.798 32.9428C80.798 31.3398 79.786 31.7578 78.427 31.7578C77.229 31.7578 76.133 32.2158 75.048 32.5258C74.541 32.6708 72.107 31.7578 72.107 31.7578C72.107 31.7578 75.589 31.9338 76.628 31.5598C79.478 30.5338 83.779 29.1318 85.231 26.2268C86.543 23.6028 84.546 20.3018 80.798 20.3018C78.201 20.3018 81.817 21.0918 83.475 21.0918C86.208 21.0918 87.806 19.7628 90.191 18.8088C92.407 17.9228 91.732 14.1238 91.486 12.4008C91.348 11.4368 89.894 9.9108 88.786 10.9078C88.221 11.4168 86.853 13.2048 87.162 12.5098C87.964 10.7068 91.083 4.3034 88.303 2.8318C86.631 1.9463 81.793 1.2724 80.798 3.5121C79.675 6.0377 78.3 12.6198 80.315 14.8588C80.664 15.2458 81.774 16.5828 81.368 16.3508C79.986 15.5618 78.945 15.1728 77.462 14.7488C76.699 14.5308 76.173 11.9998 75.267 13.7608C74.39 15.4678 73.187 18.3178 73.292 20.3018C73.338 21.1748 73.997 22.5248 74.675 23.0668C74.979 23.3108 76 25.2568 76 24.8668C76 24.0568 74.583 22.0818 74.082 21.5088C73.378 20.7048 71.291 18.3948 70.132 18.3258C67.741 18.1858 67.366 22.2368 67.366 23.8568C67.366 25.0148 67.136 26.4758 67.388 27.6098C67.66 28.8338 68.946 29.8778 68.946 31.1648C68.946 31.6518 69.166 34.2598 69.166 34.2598C67.478 33.3658 66.571 30.4888 65.3033 29.0798C62.7341 26.2258 63.4159 33.7738 63.4159 35.3128C63.4159 36.7618 64.5 39.1978 64.5 40.6458C64.5 41.9278 65.5836 43.8578 63.7977 42.6208C62.6973 41.8588 60.2901 39.8588 58.8729 40.6458C57.4792 41.4198 57.8853 42.7228 57.8853 44.2008C57.8853 45.7088 57.9699 47.2488 59.0704 48.3488C59.9316 49.2108 62.8612 52.7278 62 51.8668C60.2195 50.0858 57.0952 49.8408 57.0952 52.8918C57.0952 55.3378 59.3329 56.3798 60.2555 58.2248" fill="#FFA500"/>
<path d="M59.8605 64.5458C62.3634 64.5458 65.0963 63.8868 67.366 62.8778C69.718 61.8328 69.377 57.6408 66.774 57.0618C65.6186 56.8058 58.9763 57.4078 62.7136 56.1618C64.9012 55.4328 67.372 55.2608 69.517 54.6478C71.479 54.0868 73.131 52.4308 72.195 50.3248C71.525 48.8168 68.081 47.9538 66.379 47.9538C63.4189 47.9538 66.31 47.5938 67.849 47.2518C70.169 46.7368 72.389 46.3208 74.477 45.2768C75.955 44.5378 79.153 42.2198 76.65 40.2728C75.398 39.2988 71.176 38.8508 69.737 39.5708C66.207 41.3348 70.676 39.5618 72.107 38.8458C74.021 37.8898 77.825 37.2508 79.217 35.5108C79.965 34.5768 80.798 34.5248 80.798 32.9428C80.798 31.3398 79.786 31.7578 78.427 31.7578C77.229 31.7578 76.133 32.2158 75.048 32.5258C74.541 32.6708 72.107 31.7578 72.107 31.7578C72.107 31.7578 75.589 31.9338 76.628 31.5598C79.478 30.5338 83.779 29.1318 85.231 26.2268C86.543 23.6028 84.546 20.3018 80.798 20.3018C78.201 20.3018 81.817 21.0918 83.475 21.0918C86.208 21.0918 87.806 19.7628 90.191 18.8088C92.407 17.9228 91.732 14.1238 91.486 12.4008C91.348 11.4368 89.894 9.9108 88.786 10.9078C88.221 11.4168 86.853 13.2048 87.162 12.5098C87.964 10.7068 91.083 4.3034 88.303 2.8318C86.631 1.9463 81.793 1.2724 80.798 3.5121C79.675 6.0377 78.3 12.6198 80.315 14.8588C80.664 15.2458 81.774 16.5828 81.368 16.3508C79.986 15.5618 78.945 15.1728 77.462 14.7488C76.699 14.5308 76.173 11.9998 75.267 13.7608C74.39 15.4678 73.187 18.3178 73.292 20.3018C73.338 21.1748 73.997 22.5248 74.675 23.0668C74.979 23.3108 76 25.2568 76 24.8668C76 24.0568 74.583 22.0818 74.082 21.5088C73.378 20.7048 71.291 18.3948 70.132 18.3258C67.741 18.1858 67.366 22.2368 67.366 23.8568C67.366 25.0148 67.136 26.4758 67.388 27.6098C67.66 28.8338 68.946 29.8778 68.946 31.1648C68.946 31.6518 69.166 34.2598 69.166 34.2598C67.478 33.3658 66.571 30.4888 65.3033 29.0798C62.7341 26.2258 63.4159 33.7738 63.4159 35.3128C63.4159 36.7618 64.5 39.1978 64.5 40.6458C64.5 41.9278 65.5836 43.8578 63.7977 42.6208C62.6973 41.8588 60.2901 39.8588 58.8729 40.6458C57.4792 41.4198 57.8853 42.7228 57.8853 44.2008C57.8853 45.7088 57.9699 47.2488 59.0704 48.3488C59.9316 49.2108 62.8612 52.7278 62 51.8668C60.2195 50.0858 57.0952 49.8408 57.0952 52.8918C57.0952 55.3378 59.3329 56.3798 60.2555 58.2248" stroke="black" stroke-width="3" stroke-linecap="round"/>
<path d="M59.8605 64.1508C59.8605 60.4438 61.1015 56.2988 62.3186 52.7828C63.6766 48.8598 64.4091 44.3448 66.401 40.6458C71.793 30.6308 78.591 20.9278 86.723 12.7958" stroke="black" stroke-width="3" stroke-linecap="round"/>
<path d="M62.1443 86.5448C63.8772 85.3838 68.722 82.6598 70.877 81.5828C75.123 79.4598 79.42 76.4998 84.284 75.5648C87.742 74.8998 91.008 73.5038 94.495 72.9008C95.445 72.7368 102.739 72.2528 102.907 71.6678C103.274 70.3818 102.202 68.7488 101.057 68.2638C99.536 67.6208 98.205 66.3068 96.74 65.5018C94.869 64.4718 92.587 64.3668 90.5 64.3668C80.858 64.3668 69.256 65.2438 62.4297 73.2458C60.3967 75.6288 57.2005 79.3368 57.2005 82.7908C57.2005 84.7088 56.1197 90.2728 58.9765 88.6858C61.3893 87.3458 63.3591 85.2518 66.08 84.3448" fill="#FFA500"/>
<path d="M62.1443 86.5448C63.8772 85.3838 68.722 82.6598 70.877 81.5828C75.123 79.4598 79.42 76.4998 84.284 75.5648C87.742 74.8998 91.008 73.5038 94.495 72.9008C95.445 72.7368 102.739 72.2528 102.907 71.6678C103.274 70.3818 102.202 68.7488 101.057 68.2638C99.536 67.6208 98.205 66.3068 96.74 65.5018C94.869 64.4718 92.587 64.3668 90.5 64.3668C80.858 64.3668 69.256 65.2438 62.4297 73.2458C60.3967 75.6288 57.2005 79.3368 57.2005 82.7908C57.2005 84.7088 56.1197 90.2728 58.9765 88.6858C61.3893 87.3458 63.3591 85.2518 66.08 84.3448" stroke="black" stroke-width="3" stroke-linecap="round"/>
</svg>
