<svg width="100%" height="100%" viewBox="0 0 40 32" fill="none" xmlns="http://www.w3.org/2000/svg">
<path d="M16.319 30.434C15.6589 30.0258 13.8131 29.0679 12.9922 28.6892C11.3744 27.9426 9.73737 26.9014 7.88461 26.5726C6.56724 26.3387 5.32282 25.8478 3.99425 25.6358C3.63261 25.5781 0.853635 25.4079 0.789902 25.2019C0.64994 24.75 1.05813 24.1754 1.49466 24.0049C2.07402 23.7787 2.58114 23.3167 3.13912 23.0336C3.85204 22.6714 4.72118 22.6345 5.51657 22.6345C9.18975 22.6345 13.6099 22.9429 16.2104 25.7571C16.9849 26.5955 18.2025 27.8994 18.2025 29.114C18.2025 29.7884 18.6142 31.7453 17.5259 31.1873C16.6067 30.7157 15.8563 29.9794 14.8196 29.6604" fill="#FFA500"/>
<path d="M16.319 30.434C15.6589 30.0258 13.8131 29.0679 12.9922 28.6892C11.3744 27.9426 9.73737 26.9014 7.88461 26.5726C6.56724 26.3387 5.32282 25.8478 3.99425 25.6358C3.63261 25.5781 0.853635 25.4079 0.789902 25.2019C0.64994 24.75 1.05813 24.1754 1.49466 24.0049C2.07402 23.7787 2.58114 23.3167 3.13912 23.0336C3.85204 22.6714 4.72118 22.6345 5.51657 22.6345C9.18975 22.6345 13.6099 22.9429 16.2104 25.7571C16.9849 26.5955 18.2025 27.8994 18.2025 29.114C18.2025 29.7884 18.6142 31.7453 17.5259 31.1873C16.6067 30.7157 15.8563 29.9794 14.8196 29.6604" stroke="black" stroke-width="0.2" stroke-linecap="round"/>
<path d="M19.981 24.3625C19.4855 24.3625 18.9901 24.3625 18.4946 24.3625C17.6117 24.3625 16.8031 23.8392 16.0882 23.3824C15.4596 22.9805 14.9522 22.5212 14.4603 22.0103C13.6888 21.2092 16.3484 21.5539 16.5836 21.6182C17.0429 21.7441 18.0688 21.8137 18.4946 22.0103C18.961 22.2255 17.8171 21.8194 17.6453 21.749C17.1346 21.5394 16.5125 21.3278 16.0882 21.0232C15.6147 20.6832 15.065 20.3663 14.5704 20.0502C13.9411 19.6483 13.6371 19.1366 13.1549 18.6422C12.6672 18.1418 14.0544 18.0905 14.3187 18.0905C15.1146 18.0905 16.6085 18.7678 17.2914 19.118C18.5309 19.7538 16.1561 18.6672 15.7029 18.4822C14.9574 18.1784 14.4439 17.6319 13.7525 17.2775C13.266 17.0278 12.675 16.6399 12.4077 16.1958C12.1575 15.7798 11.8992 14.8237 12.6122 14.8237C13.4834 14.8237 14.0533 14.9102 14.8142 15.2882C15.1435 15.4521 17.4197 16.6438 16.5836 16.065C15.8424 15.5519 12.3965 14.0384 12.337 12.9944C12.3096 12.5151 12.2448 11.4267 12.9818 11.303C13.3553 11.2404 13.7928 11.2801 14.1457 11.3972C14.4115 11.4855 14.464 11.7949 14.6726 11.9489C15.0906 12.2577 15.3711 12.4244 15.8758 12.6315C16.2581 12.7883 16.1323 12.8456 15.7972 12.7331C15.305 12.5678 14.871 12.2123 14.4603 11.9201C13.4333 11.1887 12.472 9.5194 13.7525 8.58085C14.219 8.2387 15.3238 7.81602 15.7343 8.47923C15.7802 8.55307 16.0278 8.82595 16.0174 8.68248C15.9987 8.42402 15.8886 8.47923 15.7029 8.3558C15.7029 7.49918 16.3627 8.71694 15.2381 7.5136C14.8142 6.63448 13.5667 5.74164 14.4762 4.86252C15.3856 3.9834 15.8472 3.33531 16.5207 4.31219C16.6068 4.43703 17.034 5.00494 16.9768 4.89312C16.7988 4.54393 16.7428 4.93145 16.6966 4.54745C16.6028 3.76784 15.2381 2.76634 15.7029 1.54215C15.0658 0.786107 16.2926 0.972973 16.8667 0.972973C17.7192 0.972973 18.0624 1.17862 18.4238 1.88765C18.6833 2.39659 18.6931 3.48054 18.5576 4.04353C18.5066 4.25523 18.1408 5.34112 18.1408 4.6969C18.1408 3.78683 18.6983 2.90131 19.0476 2.06305C19.2617 1.54929 20.8962 1.80624 21.1429 2.23887C21.524 2.90735 20.6888 3.96934 20.6888 4.6969C20.6888 5.16389 19.7512 5.32494 19.344 5.40828C19.0759 5.46349 17.9423 5.54648 18.2823 5.54648C19.0999 5.54648 19.8651 5.28485 20.6888 5.28485C21.4061 5.28485 21.5381 5.4976 21.5381 6.13443C21.5381 6.77092 20.6444 6.84863 20.1933 7.1725C19.3301 7.7921 15.9166 7.83923 17.0083 7.8983C18.4994 7.97918 19.6554 7.5987 19.5563 9.33549C19.4994 10.3328 17.5005 11.303 16.5207 11.303C16.3274 11.303 18.4798 10.945 18.8171 11.194C19.1215 11.419 19.5563 11.6398 19.5563 12.0798C19.5563 12.5369 19.5563 12.9944 19.5563 13.4515C19.5563 13.9966 19.1249 14.337 18.7699 14.7583C18.3918 15.207 17.5357 15.4271 17.2914 15.9342C17.1215 16.2872 16.84 16.3769 17.433 16.232C17.7989 16.1427 18.3182 16.2281 18.6362 16.065C19.17 15.7914 19.727 16.0604 19.9495 16.5225C20.0441 16.7187 20.0948 17.7631 19.9495 17.9305C19.7642 18.1446 18.7174 18.8557 18.6362 19.118C18.4964 19.5695 17.8893 20.0502 18.6283 19.9528C19.338 19.8593 20.1541 19.413 20.8303 19.7601C21.4138 20.0594 21.3965 20.4026 21.3965 20.9649C21.3965 22.0391 21.2066 23.0575 20.5472 23.9704" fill="#FFA500"/>
<path d="M19.981 24.3625C19.4855 24.3625 18.9901 24.3625 18.4946 24.3625C17.6117 24.3625 16.8031 23.8392 16.0882 23.3824C15.4596 22.9805 14.9522 22.5212 14.4603 22.0103C13.6888 21.2092 16.3484 21.5539 16.5836 21.6182C17.0429 21.7441 18.0688 21.8137 18.4946 22.0103C18.961 22.2255 17.8171 21.8194 17.6453 21.749C17.1346 21.5394 16.5125 21.3278 16.0882 21.0232C15.6147 20.6832 15.065 20.3663 14.5704 20.0502C13.9411 19.6483 13.6371 19.1366 13.1549 18.6422C12.6672 18.1418 14.0544 18.0905 14.3187 18.0905C15.1146 18.0905 16.6085 18.7678 17.2914 19.118C18.5309 19.7538 16.1561 18.6672 15.7029 18.4822C14.9574 18.1784 14.4439 17.6319 13.7525 17.2775C13.266 17.0278 12.675 16.6399 12.4077 16.1958C12.1575 15.7798 11.8992 14.8237 12.6122 14.8237C13.4834 14.8237 14.0533 14.9102 14.8142 15.2882C15.1435 15.4521 17.4197 16.6438 16.5836 16.065C15.8424 15.5519 12.3965 14.0384 12.337 12.9944C12.3096 12.5151 12.2448 11.4267 12.9818 11.303C13.3553 11.2404 13.7928 11.2801 14.1457 11.3972C14.4115 11.4855 14.464 11.7949 14.6726 11.9489C15.0906 12.2577 15.3711 12.4244 15.8758 12.6315C16.2581 12.7883 16.1323 12.8456 15.7972 12.7331C15.305 12.5678 14.871 12.2123 14.4603 11.9201C13.4333 11.1887 12.472 9.5194 13.7525 8.58085C14.219 8.2387 15.3238 7.81602 15.7343 8.47923C15.7802 8.55307 16.0278 8.82595 16.0174 8.68248C15.9987 8.42402 15.8886 8.47923 15.7029 8.3558C15.7029 7.49918 16.3627 8.71694 15.2381 7.5136C14.8142 6.63448 13.5667 5.74164 14.4762 4.86252C15.3856 3.9834 15.8472 3.33531 16.5207 4.31219C16.6068 4.43703 17.034 5.00494 16.9768 4.89312C16.7988 4.54393 16.7428 4.93145 16.6966 4.54745C16.6028 3.76784 15.2381 2.76634 15.7029 1.54215C15.0658 0.786107 16.2926 0.972973 16.8667 0.972973C17.7192 0.972973 18.0624 1.17862 18.4238 1.88765C18.6833 2.39659 18.6931 3.48054 18.5576 4.04353C18.5066 4.25523 18.1408 5.34112 18.1408 4.6969C18.1408 3.78683 18.6983 2.90131 19.0476 2.06305C19.2617 1.54929 20.8962 1.80624 21.1429 2.23887C21.524 2.90735 20.6888 3.96934 20.6888 4.6969C20.6888 5.16389 19.7512 5.32494 19.344 5.40828C19.0759 5.46349 17.9423 5.54648 18.2823 5.54648C19.0999 5.54648 19.8651 5.28485 20.6888 5.28485C21.4061 5.28485 21.5381 5.4976 21.5381 6.13443C21.5381 6.77092 20.6444 6.84863 20.1933 7.1725C19.3301 7.7921 15.9166 7.83923 17.0083 7.8983C18.4994 7.97918 19.6554 7.5987 19.5563 9.33549C19.4994 10.3328 17.5005 11.303 16.5207 11.303C16.3274 11.303 18.4798 10.945 18.8171 11.194C19.1215 11.419 19.5563 11.6398 19.5563 12.0798C19.5563 12.5369 19.5563 12.9944 19.5563 13.4515C19.5563 13.9966 19.1249 14.337 18.7699 14.7583C18.3918 15.207 17.5357 15.4271 17.2914 15.9342C17.1215 16.2872 16.84 16.3769 17.433 16.232C17.7989 16.1427 18.3182 16.2281 18.6362 16.065C19.17 15.7914 19.727 16.0604 19.9495 16.5225C20.0441 16.7187 20.0948 17.7631 19.9495 17.9305C19.7642 18.1446 18.7174 18.8557 18.6362 19.118C18.4964 19.5695 17.8893 20.0502 18.6283 19.9528C19.338 19.8593 20.1541 19.413 20.8303 19.7601C21.4138 20.0594 21.3965 20.4026 21.3965 20.9649C21.3965 22.0391 21.2066 23.0575 20.5472 23.9704" stroke="black" stroke-width="0.2" stroke-linecap="round"/>
<path d="M20.4056 24.1009C19.6112 23.3677 18.8775 22.216 18.4946 21.2265C18.2603 20.6209 17.8663 20.021 17.7161 19.3969C17.5449 18.6858 17.0658 17.9213 17.0083 17.2047C16.9786 16.834 16.7366 16.5091 16.7252 16.1304C16.7134 15.738 16.6734 15.303 16.5522 14.9253C16.2173 13.882 16.3005 12.706 16.3005 11.6223C16.3005 10.6865 16.1253 9.5834 16.3713 8.6751C16.7411 7.30965 17.0914 5.96951 17.5745 4.63184" stroke="black" stroke-width="0.2" stroke-linecap="round"/>
<path d="M22.804 22.6974C23.7575 22.6974 24.7986 22.4657 25.6632 22.1109C26.5592 21.7434 26.4293 20.2693 25.4377 20.0657C24.9976 19.9757 22.4672 20.1874 23.8909 19.7492C24.7243 19.4929 25.6655 19.4324 26.4827 19.2168C27.2301 19.0195 27.8594 18.4372 27.5029 17.6966C27.2476 17.1663 25.9356 16.8629 25.2872 16.8629C24.1596 16.8629 25.2609 16.7363 25.8472 16.616C26.731 16.4349 27.5768 16.2886 28.3722 15.9215C28.9352 15.6616 30.1535 14.8465 29.2 14.1619C28.723 13.8194 27.1147 13.6618 26.5665 13.915C25.2217 14.5353 26.9242 13.9118 27.4693 13.6601C28.1985 13.3239 29.6476 13.0992 30.1779 12.4873C30.4629 12.1589 30.7802 12.1406 30.7802 11.5843C30.7802 11.0206 30.3947 11.1676 29.877 11.1676C29.4206 11.1676 29.003 11.3286 28.5897 11.4376C28.3966 11.4886 27.4693 11.1676 27.4693 11.1676C27.4693 11.1676 28.7958 11.2295 29.1916 11.098C30.2773 10.7372 31.9158 10.2442 32.469 9.22261C32.9688 8.29989 32.208 7.1391 30.7802 7.1391C29.7909 7.1391 31.1684 7.4169 31.8 7.4169C32.8411 7.4169 33.4499 6.94956 34.3585 6.61408C35.2027 6.30252 34.9455 4.96661 34.8518 4.36072C34.7992 4.02173 34.2453 3.48512 33.8232 3.83571C33.608 4.0147 33.0869 4.64345 33.2046 4.39905C33.5101 3.76503 34.6983 1.51328 33.6392 0.995798C33.0023 0.684414 31.1592 0.447438 30.7802 1.23502C30.3524 2.12315 29.8286 4.43773 30.5962 5.22507C30.7291 5.36116 31.152 5.83131 30.9973 5.74973C30.4709 5.47228 30.0743 5.33549 29.5093 5.18639C29.2187 5.10973 29.0183 4.21971 28.6731 4.83896C28.339 5.43923 27.8808 6.44143 27.9208 7.1391C27.9383 7.44608 28.1893 7.92081 28.4476 8.1114C28.5634 8.19721 28.9524 8.88151 28.9524 8.74437C28.9524 8.45954 28.4126 7.76503 28.2217 7.56354C27.9535 7.28081 27.1585 6.4685 26.717 6.44424C25.8061 6.39501 25.6632 7.81954 25.6632 8.38921C25.6632 8.79641 25.5756 9.31017 25.6716 9.70894C25.7752 10.1394 26.2651 10.5065 26.2651 10.9591C26.2651 11.1303 26.349 12.0474 26.349 12.0474C25.7059 11.733 25.3604 10.7213 24.8774 10.2259C23.8987 9.22226 24.1584 11.8765 24.1584 12.4177C24.1584 12.9272 24.5714 13.7838 24.5714 14.293C24.5714 14.7438 24.9842 15.4225 24.3039 14.9875C23.8847 14.7196 22.9677 14.0163 22.4278 14.293C21.8968 14.5652 22.0515 15.0234 22.0515 15.5431C22.0515 16.0734 22.0838 16.615 22.503 17.0018C22.8311 17.3049 23.9471 18.5416 23.619 18.2389C22.9408 17.6126 21.7505 17.5264 21.7505 18.5993C21.7505 19.4594 22.603 19.8259 22.9545 20.4747" fill="#FFA500"/>
<path d="M22.804 22.6974C23.7575 22.6974 24.7986 22.4657 25.6632 22.1109C26.5592 21.7434 26.4293 20.2693 25.4377 20.0657C24.9976 19.9757 22.4672 20.1874 23.8909 19.7492C24.7243 19.4929 25.6655 19.4324 26.4827 19.2168C27.2301 19.0195 27.8594 18.4372 27.5029 17.6966C27.2476 17.1663 25.9356 16.8629 25.2872 16.8629C24.1596 16.8629 25.2609 16.7363 25.8472 16.616C26.731 16.4349 27.5768 16.2886 28.3722 15.9215C28.9352 15.6616 30.1535 14.8465 29.2 14.1619C28.723 13.8194 27.1147 13.6618 26.5665 13.915C25.2217 14.5353 26.9242 13.9118 27.4693 13.6601C28.1985 13.3239 29.6476 13.0992 30.1779 12.4873C30.4629 12.1589 30.7802 12.1406 30.7802 11.5843C30.7802 11.0206 30.3947 11.1676 29.877 11.1676C29.4206 11.1676 29.003 11.3286 28.5897 11.4376C28.3966 11.4886 27.4693 11.1676 27.4693 11.1676C27.4693 11.1676 28.7958 11.2295 29.1916 11.098C30.2773 10.7372 31.9158 10.2442 32.469 9.22261C32.9688 8.29989 32.208 7.1391 30.7802 7.1391C29.7909 7.1391 31.1684 7.4169 31.8 7.4169C32.8411 7.4169 33.4499 6.94956 34.3585 6.61408C35.2027 6.30252 34.9455 4.96661 34.8518 4.36072C34.7992 4.02173 34.2453 3.48512 33.8232 3.83571C33.608 4.0147 33.0869 4.64345 33.2046 4.39905C33.5101 3.76503 34.6983 1.51328 33.6392 0.995798C33.0023 0.684414 31.1592 0.447438 30.7802 1.23502C30.3524 2.12315 29.8286 4.43773 30.5962 5.22507C30.7291 5.36116 31.152 5.83131 30.9973 5.74973C30.4709 5.47228 30.0743 5.33549 29.5093 5.18639C29.2187 5.10973 29.0183 4.21971 28.6731 4.83896C28.339 5.43923 27.8808 6.44143 27.9208 7.1391C27.9383 7.44608 28.1893 7.92081 28.4476 8.1114C28.5634 8.19721 28.9524 8.88151 28.9524 8.74437C28.9524 8.45954 28.4126 7.76503 28.2217 7.56354C27.9535 7.28081 27.1585 6.4685 26.717 6.44424C25.8061 6.39501 25.6632 7.81954 25.6632 8.38921C25.6632 8.79641 25.5756 9.31017 25.6716 9.70894C25.7752 10.1394 26.2651 10.5065 26.2651 10.9591C26.2651 11.1303 26.349 12.0474 26.349 12.0474C25.7059 11.733 25.3604 10.7213 24.8774 10.2259C23.8987 9.22226 24.1584 11.8765 24.1584 12.4177C24.1584 12.9272 24.5714 13.7838 24.5714 14.293C24.5714 14.7438 24.9842 15.4225 24.3039 14.9875C23.8847 14.7196 22.9677 14.0163 22.4278 14.293C21.8968 14.5652 22.0515 15.0234 22.0515 15.5431C22.0515 16.0734 22.0838 16.615 22.503 17.0018C22.8311 17.3049 23.9471 18.5416 23.619 18.2389C22.9408 17.6126 21.7505 17.5264 21.7505 18.5993C21.7505 19.4594 22.603 19.8259 22.9545 20.4747" stroke="black" stroke-width="0.2" stroke-linecap="round"/>
<path d="M22.804 22.5585C22.804 21.255 23.2768 19.7974 23.7404 18.561C24.2578 17.1815 24.5368 15.5938 25.2956 14.293C27.3497 10.7713 29.9394 7.35923 33.0373 4.49962" stroke="black" stroke-width="0.2" stroke-linecap="round"/>
<path d="M23.674 30.4333C24.3342 30.0251 26.1798 29.0672 27.0008 28.6885C28.6183 27.9419 30.2552 26.901 32.1082 26.5722C33.4255 26.3384 34.6697 25.8475 35.9981 25.6355C36.36 25.5778 39.1387 25.4076 39.2027 25.2019C39.3425 24.7496 38.9341 24.1754 38.4979 24.0049C37.9185 23.7787 37.4114 23.3167 36.8533 23.0336C36.1406 22.6714 35.2712 22.6345 34.4762 22.6345C30.8031 22.6345 26.3832 22.9429 23.7827 25.7568C23.0083 26.5947 21.7907 27.8987 21.7907 29.1133C21.7907 29.7877 21.3789 31.7443 22.4672 31.1862C23.3864 30.715 24.1368 29.9787 25.1733 29.6597" fill="#FFA500"/>
<path d="M23.674 30.4333C24.3342 30.0251 26.1798 29.0672 27.0008 28.6885C28.6183 27.9419 30.2552 26.901 32.1082 26.5722C33.4255 26.3384 34.6697 25.8475 35.9981 25.6355C36.36 25.5778 39.1387 25.4076 39.2027 25.2019C39.3425 24.7496 38.9341 24.1754 38.4979 24.0049C37.9185 23.7787 37.4114 23.3167 36.8533 23.0336C36.1406 22.6714 35.2712 22.6345 34.4762 22.6345C30.8031 22.6345 26.3832 22.9429 23.7827 25.7568C23.0083 26.5947 21.7907 27.8987 21.7907 29.1133C21.7907 29.7877 21.3789 31.7443 22.4672 31.1862C23.3864 30.715 24.1368 29.9787 25.1733 29.6597" stroke="black" stroke-width="0.2" stroke-linecap="round"/>
</svg>
