<svg width="20" height="31" viewBox="0 0 20 31" fill="none" xmlns="http://www.w3.org/2000/svg">
<path d="M18.1566 25.6256L17.8345 26.0311H18.3524H19.0707C19.4898 26.0311 19.75 26.3139 19.75 26.6162V28.4949C19.75 28.6572 19.6873 28.7979 19.5745 28.9002C19.4609 29.0031 19.2816 29.08 19.0303 29.08H18.7803V29.33V30.75H1.34091V29.33V29.08H1.09091H1.01006C0.562164 29.08 0.25 28.7725 0.25 28.4949V26.6162C0.25 26.3386 0.562163 26.0311 1.01006 26.0311H1.84982H2.3677L2.04557 25.6256C1.89868 25.4407 1.59962 25.0083 1.49732 24.4599C1.39789 23.9269 1.47981 23.267 2.12002 22.5865L1.94715 22.4239L2.12003 22.5865C2.9488 21.7055 4.17296 19.9647 5.00028 18.0063C5.82357 16.0574 6.28164 13.8268 5.47867 12.0068L5.41289 11.8577H5.24994H5.01006C4.56216 11.8577 4.25 11.5502 4.25 11.2727V11.1683C4.25 10.8908 4.56216 10.5833 5.01006 10.5833H5.27976H5.97528L5.43891 10.1405C4.16476 9.08868 3.38127 7.61984 3.38127 6.00168C3.38127 2.85893 6.35344 0.25 10.101 0.25C13.8485 0.25 16.8207 2.85893 16.8207 6.00168C16.8207 7.61984 16.0372 9.08868 14.763 10.1405L14.2267 10.5833H14.9222H15.0707C15.4898 10.5833 15.75 10.8661 15.75 11.1683V11.2727C15.75 11.575 15.4898 11.8577 15.0707 11.8577H14.9522H14.7893L14.7235 12.0068C13.9205 13.8268 14.3786 16.0574 15.2019 18.0063C16.0292 19.9647 17.2534 21.7055 18.0822 22.5865L18.0822 22.5865C18.7224 23.267 18.8043 23.9269 18.7049 24.4599C18.6026 25.0083 18.3035 25.4407 18.1566 25.6256Z" fill="#767676" stroke="black" stroke-width="0.5"/>
</svg>
