<svg width="100%" height="100%" viewBox="0 0 40 32" fill="none" xmlns="http://www.w3.org/2000/svg">
<g clip-path="url(#clip0_2_127)">
<path d="M15.3191 22.4561V31.4386H24.6809V22.4561H15.3191Z" fill="#860909" stroke="black"/>
<path d="M3.40425 22.1754H16.1702H36.5957L38.7234 21.8947L39.1489 20.7719L38.7234 20.2105L37.8723 19.6491L28.0851 16.2807H35.3191L36.1702 16L36.5957 15.7193V14.8772L36.1702 14.0351L35.3191 13.193L23.8298 9.54386H31.9149L32.766 9.26316L33.617 8.70176V8.14035L33.1915 7.29825L31.9149 6.73684L25.1064 4.21053L20 0.842106L14.8936 4.21053L8.0851 6.73684L6.80851 7.29825L6.38298 8.14035V8.70176L7.23404 9.26316L8.0851 9.54386H16.1702L4.68085 13.193L3.82979 14.0351L3.40425 14.8772V15.7193L3.82979 16L4.68085 16.2807H11.9149L2.12766 19.6491L1.27659 20.2105L0.851063 20.7719L1.27659 21.8947L3.40425 22.1754Z" fill="#73C067"/>
<path d="M20.4255 0.561403L14.8936 4.21053L8.0851 6.73684L6.80851 7.29825L6.38298 8.14035V8.70175L7.23404 9.26316L8.0851 9.54386H16.1702L4.68085 13.193L3.82979 14.0351L3.40425 14.8772V15.7193L3.82979 16L4.68085 16.2807H11.9149L2.12766 19.6491L1.27659 20.2105L0.851063 20.7719L1.27659 21.8947L3.40425 22.1754H16.1702H36.5957L38.7234 21.8947L39.1489 20.7719L38.7234 20.2105L37.8723 19.6491L28.0851 16.2807H35.3191L36.1702 16L36.5957 15.7193V14.8772L36.1702 14.0351L35.3191 13.193L23.8298 9.54386H31.9149L32.766 9.26316L33.617 8.70175V8.14035L33.1915 7.29825L31.9149 6.73684L25.1064 4.21053L19.5745 0.561403" stroke="black"/>
</g>
<defs>
<clipPath id="clip0_2_127">
<rect width="40" height="32" fill="white"/>
</clipPath>
</defs>
</svg>
