<svg width="47" height="57" viewBox="0 0 47 57" fill="none" xmlns="http://www.w3.org/2000/svg">
<path d="M18 40V56H29V40H18Z" fill="#860909" stroke="black"/>
<path d="M4 39.5H19H43L45.5 39L46 37L45.5 36L44.5 35L33 29H41.5L42.5 28.5L43 28V26.5L42.5 25L41.5 23.5L28 17H37.5L38.5 16.5L39.5 15.5V14.5L39 13L37.5 12L29.5 7.5L23.5 1.5L17.5 7.5L9.5 12L8 13L7.5 14.5V15.5L8.5 16.5L9.5 17H19L5.5 23.5L4.5 25L4 26.5V28L4.5 28.5L5.5 29H14L2.5 35L1.5 36L1 37L1.5 39L4 39.5Z" fill="#73C067"/>
<path d="M24 1L17.5 7.5L9.5 12L8 13L7.5 14.5V15.5L8.5 16.5L9.5 17H19L5.5 23.5L4.5 25L4 26.5V28L4.5 28.5L5.5 29H14L2.5 35L1.5 36L1 37L1.5 39L4 39.5H19H43L45.5 39L46 37L45.5 36L44.5 35L33 29H41.5L42.5 28.5L43 28V26.5L42.5 25L41.5 23.5L28 17H37.5L38.5 16.5L39.5 15.5V14.5L39 13L37.5 12L29.5 7.5L23 1" stroke="black"/>
</svg>
