<svg width="40" height="32" viewBox="0 0 40 32" fill="none" xmlns="http://www.w3.org/2000/svg">
<g clip-path="url(#clip0_4_171)">
<mask id="mask0_4_171" style="mask-type:luminance" maskUnits="userSpaceOnUse" x="0" y="0" width="40" height="32">
<path d="M40 0H0V32H40V0Z" fill="white"/>
</mask>
<g mask="url(#mask0_4_171)">
<g filter="url(#filter0_i_4_171)">
<path d="M3.10698 12.8902C3.0358 13.287 3 13.6892 3 14.0923V16.0552C3 16.72 3.06629 17.3832 3.1979 18.0348L3.22662 18.177C3.32228 18.6507 3.45831 19.1153 3.63321 19.5657L3.83038 20.0734C4.11193 20.7985 4.53668 21.4594 5.07927 22.0167V22.0167C5.42011 22.3668 5.8039 22.6724 6.22147 22.9261L7.39956 23.6419L8.30341 24.196C8.71442 24.448 9.1709 24.6169 9.64696 24.6931L9.97545 24.7456C10.7265 24.8658 11.4947 24.6838 12.1119 24.2394V24.2394C12.453 23.9938 12.7361 23.6766 12.9414 23.31L12.9699 23.2591C13.2325 22.7902 13.3704 22.2618 13.3704 21.7243V20.2946C13.3704 19.7827 13.3248 19.2719 13.2341 18.7682L13.2277 18.7326C13.0767 17.8929 12.8072 17.0787 12.4275 16.3146L12.1133 15.6824L11.1482 13.9111L10.5472 12.9174C10.335 12.5664 10.0842 12.2402 9.79967 11.9448V11.9448C9.46553 11.5979 9.08741 11.2962 8.67495 11.0475L8.40501 10.8847C7.94648 10.6082 7.45126 10.3977 6.93397 10.2595L6.41664 10.1212C6.1165 10.041 5.80464 10.014 5.49518 10.0413L5.30801 10.0579C4.64189 10.1167 4.03605 10.4676 3.65355 11.0161V11.0161C3.46698 11.2837 3.34054 11.5884 3.28294 11.9095L3.10698 12.8902Z" fill="#E7E7E7"/>
</g>
<path d="M3.10698 12.8902C3.0358 13.287 3 13.6892 3 14.0923V16.0552C3 16.72 3.06629 17.3832 3.1979 18.0348L3.22662 18.177C3.32228 18.6507 3.45831 19.1153 3.63321 19.5657L3.83038 20.0734C4.11193 20.7985 4.53668 21.4594 5.07927 22.0167V22.0167C5.42011 22.3668 5.8039 22.6724 6.22147 22.9261L7.39956 23.6419L8.30341 24.196C8.71442 24.448 9.1709 24.6169 9.64696 24.6931L9.97545 24.7456C10.7265 24.8658 11.4947 24.6838 12.1119 24.2394V24.2394C12.453 23.9938 12.7361 23.6766 12.9414 23.31L12.9699 23.2591C13.2325 22.7902 13.3704 22.2618 13.3704 21.7243V20.2946C13.3704 19.7827 13.3248 19.2719 13.2341 18.7682L13.2277 18.7326C13.0767 17.8929 12.8072 17.0787 12.4275 16.3146L12.1133 15.6824L11.1482 13.9111L10.5472 12.9174C10.335 12.5664 10.0842 12.2402 9.79967 11.9448V11.9448C9.46553 11.5979 9.08741 11.2962 8.67495 11.0475L8.40501 10.8847C7.94648 10.6082 7.45126 10.3977 6.93397 10.2595L6.41664 10.1212C6.1165 10.041 5.80464 10.014 5.49518 10.0413L5.30801 10.0579C4.64189 10.1167 4.03605 10.4676 3.65355 11.0161V11.0161C3.46698 11.2837 3.34054 11.5884 3.28294 11.9095L3.10698 12.8902Z" stroke="black" stroke-width="0.2"/>
<g filter="url(#filter1_i_4_171)">
<path d="M15.1496 19.2208C14.5355 19.8104 14.0216 20.4962 13.6283 21.2513L13.2688 21.9416C13.1638 22.1432 13.0737 22.3522 12.9991 22.5669L12.8573 22.9752C12.7801 23.1976 12.7407 23.4313 12.7407 23.6667V23.6667C12.7407 23.902 12.7013 24.1357 12.6241 24.358L12.3704 25.0889L12.0992 25.8698C12.0335 26.0589 12 26.2577 12 26.458V26.849C12 27.0874 12.0972 27.3156 12.2692 27.4807V27.4807C12.3363 27.545 12.4131 27.5983 12.4968 27.6385L12.6763 27.7246C12.9625 27.862 13.2759 27.9333 13.5934 27.9333H13.8518H14.5926H15.1204C15.5069 27.9333 15.8911 27.9933 16.2593 28.1111V28.1111C16.6274 28.2289 17.0116 28.2889 17.3981 28.2889H17.7354C18.1085 28.2889 18.4807 28.3243 18.8471 28.3946L19.2222 28.4666C19.8381 28.5849 20.4638 28.6444 21.0909 28.6444H21.2592H22.7407H24.2222H24.5207C25.3066 28.6444 26.0898 28.5517 26.8541 28.3684L27.1852 28.2889L28.6667 27.9333L30.1481 27.3758L31.2592 26.8666L32.1195 26.3161C32.2864 26.2093 32.4424 26.0864 32.5853 25.9492V25.9492C32.9309 25.6174 33.193 25.2084 33.3502 24.7558L33.4815 24.3778L33.6727 23.6435C33.7916 23.1867 33.8518 22.7166 33.8518 22.2445V22.2445C33.8518 21.7723 33.912 21.302 34.0311 20.845L34.2222 20.1111L34.5926 19.0444L34.847 18.0677C34.924 17.7719 34.963 17.4675 34.963 17.1618V17.1618C34.963 16.7604 34.8958 16.3619 34.7641 15.9827L34.6736 15.7223C34.6197 15.5669 34.5545 15.4157 34.4785 15.2698V15.2698C34.3088 14.944 34.087 14.648 33.822 14.3936L33.4815 14.0666V14.0666C32.9964 13.6009 32.3961 13.2728 31.7422 13.1159L31.7093 13.108C31.4103 13.0363 31.1038 13 30.7963 13H30.7801C30.3613 13 29.9434 13.0655 29.5445 13.1931V13.1931C29.2085 13.3006 28.8866 13.4518 28.5895 13.6419L28.43 13.744C28.0963 13.9575 27.8013 14.2261 27.5575 14.5382L27.1587 15.0487C26.9358 15.334 26.8148 15.6855 26.8148 16.0475V16.0692C26.8148 16.3858 26.718 16.6949 26.5374 16.955V16.955C26.2472 17.3729 25.7706 17.6222 25.2618 17.6222H22.7407H21.6296H20.5185H19.037H18.5613C18.1403 17.6222 17.7217 17.6875 17.3207 17.8159V17.8159C16.9849 17.9234 16.6644 18.0741 16.3674 18.2641L16.1806 18.3837C15.8634 18.5867 15.5669 18.8202 15.2952 19.081L15.1496 19.2208Z" fill="#E7E7E7"/>
</g>
<path d="M15.1496 19.2208C14.5355 19.8104 14.0216 20.4962 13.6283 21.2513L13.2688 21.9416C13.1638 22.1432 13.0737 22.3522 12.9991 22.5669L12.8573 22.9752C12.7801 23.1976 12.7407 23.4313 12.7407 23.6667V23.6667C12.7407 23.902 12.7013 24.1357 12.6241 24.358L12.3704 25.0889L12.0992 25.8698C12.0335 26.0589 12 26.2577 12 26.458V26.849C12 27.0874 12.0972 27.3156 12.2692 27.4807V27.4807C12.3363 27.545 12.4131 27.5983 12.4968 27.6385L12.6763 27.7246C12.9625 27.862 13.2759 27.9333 13.5934 27.9333H13.8518H14.5926H15.1204C15.5069 27.9333 15.8911 27.9933 16.2593 28.1111V28.1111C16.6274 28.2289 17.0116 28.2889 17.3981 28.2889H17.7354C18.1085 28.2889 18.4807 28.3243 18.8471 28.3946L19.2222 28.4666C19.8381 28.5849 20.4638 28.6444 21.0909 28.6444H21.2592H22.7407H24.2222H24.5207C25.3066 28.6444 26.0898 28.5517 26.8541 28.3684L27.1852 28.2889L28.6667 27.9333L30.1481 27.3758L31.2592 26.8666L32.1195 26.3161C32.2864 26.2093 32.4424 26.0864 32.5853 25.9492V25.9492C32.9309 25.6174 33.193 25.2084 33.3502 24.7558L33.4815 24.3778L33.6727 23.6435C33.7916 23.1867 33.8518 22.7166 33.8518 22.2445V22.2445C33.8518 21.7723 33.912 21.302 34.0311 20.845L34.2222 20.1111L34.5926 19.0444L34.847 18.0677C34.924 17.7719 34.963 17.4675 34.963 17.1618V17.1618C34.963 16.7604 34.8958 16.3619 34.7641 15.9827L34.6736 15.7223C34.6197 15.5669 34.5545 15.4157 34.4785 15.2698V15.2698C34.3088 14.944 34.087 14.648 33.822 14.3936L33.4815 14.0666V14.0666C32.9964 13.6009 32.3961 13.2728 31.7422 13.1159L31.7093 13.108C31.4103 13.0363 31.1038 13 30.7963 13H30.7801C30.3613 13 29.9434 13.0655 29.5445 13.1931V13.1931C29.2085 13.3006 28.8866 13.4518 28.5895 13.6419L28.43 13.744C28.0963 13.9575 27.8013 14.2261 27.5575 14.5382L27.1587 15.0487C26.9358 15.334 26.8148 15.6855 26.8148 16.0475V16.0692C26.8148 16.3858 26.718 16.6949 26.5374 16.955V16.955C26.2472 17.3729 25.7706 17.6222 25.2618 17.6222H22.7407H21.6296H20.5185H19.037H18.5613C18.1403 17.6222 17.7217 17.6875 17.3207 17.8159V17.8159C16.9849 17.9234 16.6644 18.0741 16.3674 18.2641L16.1806 18.3837C15.8634 18.5867 15.5669 18.8202 15.2952 19.081L15.1496 19.2208Z" stroke="black" stroke-width="0.2"/>
<g filter="url(#filter2_i_4_171)">
<path d="M24.0741 10.6667V10.6667C25.2873 11.3655 26.6628 11.7333 28.0629 11.7333H28.1481H29.2725C30.2344 11.7333 31.1919 11.4734 32.0254 10.9933V10.9933C32.3985 10.7785 32.7496 10.516 33.0602 10.2178L33.1932 10.0901C33.7706 9.53585 34.1941 8.84116 34.4224 8.07405V8.07405C34.6785 7.2137 34.6785 6.29741 34.4224 5.43706L34.3917 5.33389C34.1825 4.63107 33.8209 3.98306 33.3325 3.43608L32.5716 2.58382C32.0949 2.0499 31.5358 1.5957 30.9155 1.23845V1.23845C30.3089 0.889043 29.6513 0.636729 28.9667 0.490668L27.5862 0.196154C26.9749 0.0657464 26.3516 0 25.7265 0H24.8991C24.3538 0 23.813 0.10025 23.3039 0.295754V0.295754C22.5946 0.568117 21.9668 1.01755 21.4804 1.60123L21.1081 2.048C20.8646 2.34027 20.6663 2.66747 20.52 3.01866V3.01866C20.1837 3.82585 20.1362 4.72438 20.3856 5.5625L20.5488 6.11081C20.6762 6.53899 20.8563 6.94972 21.0848 7.3336L21.3238 7.73512C21.9173 8.73225 22.6949 9.60751 23.6153 10.3143L24.0741 10.6667Z" fill="#E7E7E7"/>
</g>
<path d="M24.0741 10.6667V10.6667C25.2873 11.3655 26.6628 11.7333 28.0629 11.7333H28.1481H29.2725C30.2344 11.7333 31.1919 11.4734 32.0254 10.9933V10.9933C32.3985 10.7785 32.7496 10.516 33.0602 10.2178L33.1932 10.0901C33.7706 9.53585 34.1941 8.84116 34.4224 8.07405V8.07405C34.6785 7.2137 34.6785 6.29741 34.4224 5.43706L34.3917 5.33389C34.1825 4.63107 33.8209 3.98306 33.3325 3.43608L32.5716 2.58382C32.0949 2.0499 31.5358 1.5957 30.9155 1.23845V1.23845C30.3089 0.889043 29.6513 0.636729 28.9667 0.490668L27.5862 0.196154C26.9749 0.0657464 26.3516 0 25.7265 0H24.8991C24.3538 0 23.813 0.10025 23.3039 0.295754V0.295754C22.5946 0.568117 21.9668 1.01755 21.4804 1.60123L21.1081 2.048C20.8646 2.34027 20.6663 2.66747 20.52 3.01866V3.01866C20.1837 3.82585 20.1362 4.72438 20.3856 5.5625L20.5488 6.11081C20.6762 6.53899 20.8563 6.94972 21.0848 7.3336L21.3238 7.73512C21.9173 8.73225 22.6949 9.60751 23.6153 10.3143L24.0741 10.6667Z" stroke="black" stroke-width="0.2"/>
<g filter="url(#filter3_i_4_171)">
<path d="M17.6952 13.8937C16.9278 14.5319 16.3674 15.3837 16.085 16.3409L15.9493 16.801C15.9029 16.9585 15.8793 17.1218 15.8793 17.2859V17.7711C15.8793 18.4498 15.3291 19 14.6504 19V19C14.3849 19 14.1266 18.914 13.914 18.7549L13.4749 18.4263C13.1173 18.1586 12.8269 17.8113 12.6267 17.4118L11.9483 16.0577L10.6379 13.7692L10.0721 12.6397C9.79473 12.0862 9.56942 11.5081 9.39901 10.9129L9.18198 10.1549C9.06125 9.73319 9 9.29673 9 8.85811V8.85811C9 7.60694 9.49768 6.40716 10.3833 5.52335L10.6379 5.26923L11.9306 4.16345C12.5941 3.59595 13.3364 3.12788 14.1345 2.77391V2.77391C15.2849 2.26363 16.5295 2 17.788 2H18.1724V2C19.0081 2 19.8061 2.34752 20.3754 2.95932L25.2259 8.17232C26.2813 9.30661 25.4769 11.1538 23.9275 11.1538V11.1538C23.8038 11.1538 23.6804 11.1668 23.5593 11.1924L21.3828 11.6544L21.3513 11.6653C20.4918 11.9632 19.677 12.3769 18.9293 12.895L18.7293 13.0336L17.6952 13.8937Z" fill="#E7E7E7"/>
</g>
<path d="M17.6952 13.8937C16.9278 14.5319 16.3674 15.3837 16.085 16.3409L15.9493 16.801C15.9029 16.9585 15.8793 17.1218 15.8793 17.2859V17.7711C15.8793 18.4498 15.3291 19 14.6504 19V19C14.3849 19 14.1266 18.914 13.914 18.7549L13.4749 18.4263C13.1173 18.1586 12.8269 17.8113 12.6267 17.4118L11.9483 16.0577L10.6379 13.7692L10.0721 12.6397C9.79473 12.0862 9.56942 11.5081 9.39901 10.9129L9.18198 10.1549C9.06125 9.73319 9 9.29673 9 8.85811V8.85811C9 7.60694 9.49768 6.40716 10.3833 5.52335L10.6379 5.26923L11.9306 4.16345C12.5941 3.59595 13.3364 3.12788 14.1345 2.77391V2.77391C15.2849 2.26363 16.5295 2 17.7881 2H18.1724V2C19.0081 2 19.8061 2.34752 20.3754 2.95932L25.2069 8.15196C26.2695 9.29399 25.4596 11.1538 23.8997 11.1538V11.1538C23.7944 11.1538 23.6892 11.1631 23.5855 11.1817L22.8379 11.3153C21.5845 11.5393 20.3855 12.0006 19.3051 12.6745L18.7293 13.0336L17.6952 13.8937Z" stroke="black" stroke-width="0.2"/>
</g>
</g>
<defs>
<filter id="filter0_i_4_171" x="3" y="10.031" width="10.3704" height="15.7508" filterUnits="userSpaceOnUse" color-interpolation-filters="sRGB">
<feFlood flood-opacity="0" result="BackgroundImageFix"/>
<feBlend mode="normal" in="SourceGraphic" in2="BackgroundImageFix" result="shape"/>
<feColorMatrix in="SourceAlpha" type="matrix" values="0 0 0 0 0 0 0 0 0 0 0 0 0 0 0 0 0 0 127 0" result="hardAlpha"/>
<feOffset dy="2"/>
<feGaussianBlur stdDeviation="0.5"/>
<feComposite in2="hardAlpha" operator="arithmetic" k2="-1" k3="1"/>
<feColorMatrix type="matrix" values="0 0 0 0 0.604167 0 0 0 0 0.604167 0 0 0 0 0.604167 0 0 0 0.5 0"/>
<feBlend mode="normal" in2="shape" result="effect1_innerShadow_4_171"/>
</filter>
<filter id="filter1_i_4_171" x="12" y="13" width="22.963" height="16.6444" filterUnits="userSpaceOnUse" color-interpolation-filters="sRGB">
<feFlood flood-opacity="0" result="BackgroundImageFix"/>
<feBlend mode="normal" in="SourceGraphic" in2="BackgroundImageFix" result="shape"/>
<feColorMatrix in="SourceAlpha" type="matrix" values="0 0 0 0 0 0 0 0 0 0 0 0 0 0 0 0 0 0 127 0" result="hardAlpha"/>
<feOffset dy="3"/>
<feGaussianBlur stdDeviation="0.5"/>
<feComposite in2="hardAlpha" operator="arithmetic" k2="-1" k3="1"/>
<feColorMatrix type="matrix" values="0 0 0 0 0.604167 0 0 0 0 0.604167 0 0 0 0 0.604167 0 0 0 0.5 0"/>
<feBlend mode="normal" in2="shape" result="effect1_innerShadow_4_171"/>
</filter>
<filter id="filter2_i_4_171" x="20.2279" y="0" width="14.3866" height="12.7333" filterUnits="userSpaceOnUse" color-interpolation-filters="sRGB">
<feFlood flood-opacity="0" result="BackgroundImageFix"/>
<feBlend mode="normal" in="SourceGraphic" in2="BackgroundImageFix" result="shape"/>
<feColorMatrix in="SourceAlpha" type="matrix" values="0 0 0 0 0 0 0 0 0 0 0 0 0 0 0 0 0 0 127 0" result="hardAlpha"/>
<feOffset dy="3"/>
<feGaussianBlur stdDeviation="0.5"/>
<feComposite in2="hardAlpha" operator="arithmetic" k2="-1" k3="1"/>
<feColorMatrix type="matrix" values="0 0 0 0 0.604167 0 0 0 0 0.604167 0 0 0 0 0.604167 0 0 0 0.5 0"/>
<feBlend mode="normal" in2="shape" result="effect1_innerShadow_4_171"/>
</filter>
<filter id="filter3_i_4_171" x="9" y="2" width="16.7045" height="18" filterUnits="userSpaceOnUse" color-interpolation-filters="sRGB">
<feFlood flood-opacity="0" result="BackgroundImageFix"/>
<feBlend mode="normal" in="SourceGraphic" in2="BackgroundImageFix" result="shape"/>
<feColorMatrix in="SourceAlpha" type="matrix" values="0 0 0 0 0 0 0 0 0 0 0 0 0 0 0 0 0 0 127 0" result="hardAlpha"/>
<feOffset dy="3"/>
<feGaussianBlur stdDeviation="0.5"/>
<feComposite in2="hardAlpha" operator="arithmetic" k2="-1" k3="1"/>
<feColorMatrix type="matrix" values="0 0 0 0 0.604167 0 0 0 0 0.604167 0 0 0 0 0.604167 0 0 0 0.5 0"/>
<feBlend mode="normal" in2="shape" result="effect1_innerShadow_4_171"/>
</filter>
<clipPath id="clip0_4_171">
<rect width="40" height="32" fill="white"/>
</clipPath>
</defs>
</svg>
