<svg width="41" height="33" viewBox="0 0 41 33" fill="none" xmlns="http://www.w3.org/2000/svg">
<path d="M13.1634 1.57613C13.1634 1.57613 17.8693 0.488892 19.0458 0.488892C20.2222 0.488892 24.9281 1.57613 24.9281 1.57613C24.9281 1.57613 29.634 5.92306 30.8105 5.92306C30.8105 5.92306 33.1634 5.92306 35.5163 8.09653C37.8693 10.27 37.8693 14.6169 37.8693 14.6169C37.8693 14.6169 40.2222 18.9639 40.2222 21.1373C40.2222 23.3108 39.0458 25.4843 37.8693 26.5715C36.6928 27.6587 31.9869 28.745 31.9869 28.745C31.9869 28.745 30.8105 30.9184 28.4575 32.0057C21.3987 33.0929 16.6928 32.0057 16.6928 32.0057L14.3399 29.8322C14.3399 29.8322 6.10458 28.745 4.92811 28.745C3.75164 28.745 0.222229 24.398 0.222229 23.3108C0.222229 22.2236 0.222229 18.9639 1.3987 15.7032C3.75164 12.4425 4.92811 11.3562 4.92811 11.3562C4.92811 11.3562 3.75164 9.18377 4.92811 7.0103C7.28105 4.83684 11.9869 3.7496 11.9869 3.7496L13.1634 1.57613Z" fill="#66757F"/>
<path d="M13.6446 1.91292C13.6446 1.91292 17.9187 0.880298 19.0258 0.880298C20.1328 0.880298 24.8963 2.04238 24.8963 2.04238C24.8963 2.04238 29.1011 6.11017 30.2081 6.11017C30.2081 6.11017 32.6058 6.06466 34.8211 8.1117C37.0363 10.1587 36.8305 13.7927 36.8305 13.7927C36.8305 13.7927 39.0458 17.8847 39.0458 19.9307C39.0458 21.9768 37.9387 24.0238 36.8316 25.0473C35.7246 26.0709 31.2952 27.0934 31.2952 27.0934C31.2952 27.0934 30.1881 29.1394 27.9728 30.1629C21.3293 31.1865 16.8999 30.1629 16.8999 30.1629L14.6858 28.1169C14.6858 28.1169 6.93517 27.0934 5.82811 27.0934C4.72105 27.0934 1.3987 23.0003 1.3987 21.9768C1.3987 20.9533 1.3987 17.8837 2.50576 14.8142C4.72105 11.7446 5.82811 10.7221 5.82811 10.7221C5.82811 10.7221 4.43046 9.06038 5.53752 7.01334C7.75164 4.96731 12.4563 3.91445 12.4563 3.91445L13.6446 1.91292Z" fill="#99AAB5"/>
<path d="M14.0705 2.74428C14.0705 2.74428 18.0681 1.84213 19.1034 1.84213C20.1387 1.84213 24.594 2.85654 24.594 2.85654C24.594 2.85654 28.5258 6.40752 29.5611 6.40752C29.5611 6.40752 31.8034 6.36807 33.8752 8.15418C35.9458 9.94029 35.7552 13.113 35.7552 13.113C35.7552 13.113 36.0787 17.4063 36.9175 17.5358C39.0469 17.8635 37.114 21.2911 36.0787 22.1841C35.0434 23.0772 27.8316 23.4757 27.8316 23.4757C27.8316 23.4757 28.0858 26.262 26.014 27.1561C19.8011 28.0491 17.114 27.4049 17.114 27.4049L15.0434 25.6188C15.0434 25.6188 9.99635 21.4751 8.96105 21.4751C7.92576 21.4751 2.61635 21.1525 2.61635 20.2594C2.61635 19.3664 2.61635 16.6862 3.65164 14.0071C5.72223 11.3279 6.7587 10.4338 6.7587 10.4338C6.7587 10.4338 5.45164 8.9825 6.48693 7.1964C8.55752 5.41029 12.9575 4.49094 12.9575 4.49094L14.0705 2.74428Z" fill="#CCD6DD"/>
<path d="M6.44576 10.1122L11.1293 11.9843L8.68223 13.469L3.65399 14.0071L6.44576 10.1122Z" fill="#99AAB5"/>
<path d="M0.924582 19.6031C0.924582 19.6031 2.25282 23.4119 2.60223 23.864C2.95164 24.3161 7.42458 23.9935 7.98341 23.9935C8.54223 23.9935 11.2681 25.2203 11.2681 25.2203C11.2681 25.2203 7.63399 26.0597 6.37635 25.9303C5.1187 25.8008 1.84929 25.2961 1.55399 24.574C1.2587 23.8519 0.924582 19.6031 0.924582 19.6031Z" fill="#66757F"/>
<path d="M7.63399 7.07807C8.21046 6.9213 12.1763 5.46389 13.0152 5.52862C13.854 5.59335 17.4187 7.33597 16.5799 7.91752C15.7411 8.49906 11.1281 8.04697 9.80105 8.04697C8.47399 8.04697 6.44576 7.4007 7.63399 7.07807ZM4.8387 14.89C5.19517 14.3125 9.94105 14.1153 9.94105 14.1153C9.94105 14.1153 16.0916 16.2463 16.0916 16.5689C16.0916 16.8915 10.5011 19.0873 9.94105 19.151C9.38105 19.2147 4.5587 15.3421 4.8387 14.89ZM18.6069 18.8283C18.4963 18.3176 20.9834 15.2126 21.4728 14.9547C21.9622 14.6968 28.5316 13.2111 29.6493 13.2111C30.7669 13.2111 34.3316 15.4705 34.4022 15.9226C34.4716 16.3747 31.2575 19.4736 30.4187 19.7315C29.5799 19.9904 18.8163 19.7962 18.6069 18.8283ZM24.8975 10.3054C24.6328 10.8485 31.1881 11.5969 31.8869 11.338C32.5858 11.0801 33.8434 9.33649 33.634 8.8844C33.4246 8.43231 31.3975 7.14077 30.3493 7.27023C29.2999 7.4007 25.5258 9.01487 24.8975 10.3054ZM19.7258 2.36501C20.3116 2.47323 24.1987 3.26919 24.6881 3.91445C25.1775 4.55972 22.3822 6.56125 21.6128 6.62598C20.8446 6.69071 15.6022 3.91445 15.0434 3.59182C14.4846 3.26919 18.6763 2.17082 19.7258 2.36501Z" fill="#E1E8ED"/>
<path d="M14.414 29.0929C13.9246 28.4476 14.694 26.3166 15.1128 26.5745C15.5316 26.8324 16.7905 27.6072 16.8599 28.2534C16.9293 28.8987 18.1881 30.1255 19.0963 30.5129C20.0046 30.9002 24.9669 30.9002 25.8058 30.6423C26.6446 30.3844 28.6011 28.9634 29.0905 28.124C29.5799 27.2845 30.1446 27.2228 31.2952 27.0924C32.4458 26.9619 33.5563 27.946 31.9869 28.745C30.4187 29.544 28.741 30.965 26.7846 31.2876C24.8281 31.6102 18.4681 31.8691 17.3493 31.4818C16.2305 31.0944 14.414 29.0929 14.414 29.0929Z" fill="#66757F"/>
<path d="M22.8105 24.4304C22.2211 24.1583 22.0011 21.907 22.3046 21.7199C22.6081 21.5328 25.4411 21.907 26.0987 22C26.7563 22.0931 30.7528 21.8129 31.1575 22.1871C31.5622 22.5614 32.5375 23.9328 32.8775 24.7571C33.2175 25.5824 31.0058 25.458 30.1458 25.2709C29.2858 25.0838 23.6199 24.8046 22.8105 24.4304ZM13.854 9.53068C14.6222 9.53068 17.8375 9.46595 18.5363 9.53068C19.2352 9.5954 21.4716 11.4027 20.4234 11.5969C19.3752 11.7911 16.5799 12.4364 16.1599 12.5011C15.7399 12.5658 14.2034 11.339 13.714 11.0164C13.2258 10.6928 13.0163 9.53068 13.854 9.53068ZM22.6611 7.72333C23.0493 7.18628 24.5481 7.01334 24.6175 7.59387C24.6869 8.17542 24.2681 9.46595 23.4293 9.40122C22.5905 9.3375 22.1011 8.49805 22.6611 7.72333ZM18.6069 21.3457C19.3046 21.2739 20.634 21.1515 20.634 21.6683C20.634 22.1851 19.7952 22.3783 18.8163 22.3136C17.8387 22.2499 17.9775 21.4104 18.6069 21.3457Z" fill="#99AAB5"/>
<path d="M15.8811 14.18C16.4916 13.7289 18.6069 13.6632 19.0963 13.8574C19.5858 14.0516 18.5375 15.4068 17.9081 15.4716C17.2787 15.5353 15.1822 14.6958 15.8811 14.18Z" fill="#E1E8ED"/>
<path d="M29.8587 24.0572C30.5563 23.8964 32.2352 23.7346 32.1646 24.1867C32.0952 24.6387 31.3963 25.4782 30.8363 25.4135C30.2763 25.3487 29.2999 24.1867 29.8587 24.0572ZM25.3163 28.5771C26.0881 28.4668 27.2728 27.9318 27.2034 28.5771C27.134 29.2223 26.2952 30.0618 25.3858 29.9333C24.4775 29.8039 24.4081 28.7055 25.3163 28.5771Z" fill="#66757F"/>
</svg>
