<svg width="100%" height="100%" viewBox="0 0 40 32" fill="none" xmlns="http://www.w3.org/2000/svg">
<path d="M20.634 25.9196H17.9692C16.0926 25.9196 14.5675 26.8042 14.5675 27.8927V30.0269C14.5675 31.1154 16.0926 32 17.9692 32H20.634C22.5106 32 24.0357 31.1154 24.0357 30.0269V27.8927C24.0357 26.801 22.5106 25.9196 20.634 25.9196Z" fill="black"/>
<path d="M1.84495 9.39843L6.76048 9.75358C8.31961 9.86539 9.79938 9.34581 10.3607 8.4941C11.0694 7.41877 12.0559 6.57035 13.3202 5.95212C15.1118 5.07739 17.3399 4.63673 20.0046 4.63673C22.7657 4.63673 24.9655 5.05766 26.5983 5.89621C28.2312 6.73806 29.0419 7.74433 29.0419 8.92489C29.0419 9.77331 28.5827 10.5494 27.6642 11.2531C27.0689 11.7004 25.2377 12.6409 22.1817 14.0779C19.1202 15.515 17.0848 16.8106 16.0643 17.9616C15.0211 19.1389 14.6583 20.4443 14.5675 21.7532C14.4882 22.8745 16.0303 23.8085 17.9693 23.8085H20.7474C22.5163 23.8085 23.9791 23.0225 24.1378 22.0031C24.2512 21.2698 24.461 20.7141 24.7785 20.3359C25.3114 19.688 26.6891 18.833 28.9003 17.7676C33.1807 15.7123 35.9702 14.0878 37.2799 12.8908C38.5839 11.6971 39.2416 10.431 39.2416 9.0926C39.2416 6.67558 37.467 4.55452 33.9122 2.73271C30.363 0.910904 25.5779 0 19.5681 0C13.8532 0 9.24381 0.89775 5.72867 2.69654C2.73513 4.22896 0.915196 6.0442 0.274533 8.13895C0.0760408 8.7506 0.796078 9.32279 1.84495 9.39843Z" fill="black"/>
</svg>
