<svg width="103" height="72" viewBox="0 0 103 72" fill="none" xmlns="http://www.w3.org/2000/svg">
<path d="M12.8004 19.7782C13.8914 18.9379 15.3199 18.08 16.7654 17.8633C18.9822 17.531 19.5352 18.882 21.2542 19.0893C22.4487 19.2334 23.652 17.9082 25.3071 17.7867C27.1329 17.6529 28.8123 18.634 30.0138 19.7782C30.9889 17.8296 32.9811 17.5512 35.1559 18.0544C36.7933 18.4336 37.0153 18.8873 38.3808 18.5528C39.2886 18.3304 40.1056 17.3905 41.0824 17.097C44.3072 16.1283 45.1482 18.2012 47.6626 18.3606C49.8513 18.4993 51.2602 16.7905 54.0689 17.6333C56.3202 18.3091 55.0823 18.4378 57.4243 17.9395C59.0276 17.5983 60.4933 17.8564 62.0439 17.7099C63.3404 17.5874 62.5661 17.9248 63.7 17.2882C64.1278 17.048 64.3975 16.4051 64.7892 16.1012C65.8354 15.2892 66.8072 14.8088 68.2325 15.1431C67.5774 12.9306 67.9825 11.5487 68.8421 9.66498C69.3583 8.53397 69.4247 9.17395 69.583 7.90309C69.6992 6.97053 69.1694 6.00645 69.7138 5.10675C70.2618 4.20061 72.0907 2.6567 73.0266 1.8509C75.6678 -0.423335 77.3249 1.56254 80.0856 1.39095C81.6516 1.29372 82.6554 -0.299911 84.5312 0.0501586C85.805 0.287904 86.0757 1.22002 87.0151 1.73613C89.0925 2.87713 92.3133 2.99057 91.5905 5.9494C94.9805 6.25352 106.164 9.35975 102.137 13.6494C99.8517 16.0828 96.1084 15.1376 93.1593 15.871C92.0302 16.1518 91.5905 15.2865 91.5905 16.709C91.5905 17.4651 91.61 18.2238 91.5469 18.9744C91.4873 19.6843 91.4029 20.4215 91.242 21.1189C91.009 22.1308 90.7044 23.2551 90.0216 24.1066C89.4127 24.8663 88.8132 25.4254 87.7561 25.716C89.5599 26.9973 90.0213 28.5188 89.7167 30.5047C89.5337 31.6983 89.3571 32.1229 89.4119 33.2628C89.4652 34.3739 89.845 35.308 89.4119 36.4421C89.0326 37.4353 87.9642 37.9911 87.5376 38.8553C86.8661 40.2161 87.1356 42.1835 86.8409 43.7587C86.4848 45.6616 85.3318 46.7666 84.5312 48.3551C82.6844 52.0188 83.1486 51.761 78.6919 52.7222C74.8385 53.5534 71.5955 55.824 69.1042 51.3049C67.7585 52.5282 65.7725 53.182 63.8394 53.182C61.0148 53.182 60.8037 53.1738 58.4711 54.1394C56.8904 54.7938 55.4119 55.1448 53.6338 54.8295C51.933 54.5281 50.6188 52.9176 49.145 52.6454C48.0861 52.4499 47.6033 53.0275 46.3997 53.4503C43.2943 54.5418 41.4127 52.8428 38.7293 52.8756C36.9992 52.8969 34.9564 54.753 32.6505 54.753C31.6563 54.753 28.7082 54.0364 27.835 54.3314C27.2044 54.5443 26.6852 55.8837 26.092 56.4383C23.9765 58.4155 22.68 57.1524 20.2524 57.7025C18.5279 58.0932 17.6185 60 15.175 60C12.909 60 9.80486 58.9189 8.00657 57.7404C5.99438 56.4221 6.57016 55.1776 5.56609 53.7181C3.88118 51.2687 1.595 50.4473 1.20761 47.1675C1.02832 45.6487 1.95208 43.9467 1.73086 42.532C1.61192 41.7713 0.875785 41.449 0.554563 40.6172C-0.266928 38.489 1.20181 37.0086 1.07705 35.1772C0.870987 32.1505 -1.12706 30.3135 0.902806 27.133C3.87992 22.4713 5.24966 17.5334 12.8004 19.7799" fill="black"/>
<path d="M15.0639 57H20.5726C21.0031 57 20.7683 60.1586 20.7683 60.569V67.4041C20.7683 68.0457 21.2897 71.2894 20.7683 71.7677C20.1985 72.2904 16.1684 71.7677 15.2596 71.7677C14.8291 71.7677 15.0639 68.6091 15.0639 68.1987V57.0024" fill="black"/>
<path d="M75 49.0577C75.7561 49.0577 80.7113 48.8436 80.7113 49.2403V56.0563V66.4595C80.7113 67.2955 81.3609 71.1939 80.7113 71.8404C80.3112 72.2385 75 71.7815 75 71.6578V64.8418V49.0559" fill="black"/>
<path fill-rule="evenodd" clip-rule="evenodd" d="M70.3098 47.9741C68.3812 49.8886 65.7415 50.6103 62.8408 50.4464C61.114 50.3488 60.4457 50.2125 58.9741 50.596C57.934 50.8671 57.1272 51.5217 55.9871 51.6825C52.6695 52.1505 50.3404 49.6334 47.9026 49.9225C45.2076 50.2422 43.6657 50.9999 40.697 50.4838C39.4253 50.2626 39.3957 49.904 38.2365 50.1096C37.0035 50.3284 35.6299 51.4503 34.326 51.7947C31.9164 52.4311 29.4458 52.3547 27.4723 50.9335C24.5199 55.9832 14.9048 57.6592 9.67797 54.1173C9.03561 53.6819 8.55288 53.2622 8.14016 52.6562C7.96041 52.3922 7.87664 52.022 7.87664 51.7014C7.87664 50.6218 7.55126 51.0811 6.82233 50.222C4.90337 47.9598 3.22603 46.6269 3.35079 43.5549C3.38694 42.6626 4.18742 41.2783 4.00996 40.4466C3.92314 40.0394 3.15601 39.7245 2.99969 39.2478C2.50244 37.7331 2.91338 36.8258 3.04348 35.3523C3.20337 33.5439 0.0177542 27.0951 4.05375 26.4012C4.54208 24.1962 5.57654 22.0903 8.22775 21.3818C10.1806 20.8598 11.7988 21.9679 13.5004 21.7193C14.4294 21.5837 15.4547 20.5395 16.4884 20.2586C19.0556 19.5611 21.027 21.2451 22.7267 21.0452C23.8406 20.9141 24.6106 19.9962 25.9121 19.9962C27.2768 19.9962 28.0179 20.931 29.1853 21.1201C29.4162 21.1574 29.8539 21.6117 30.0201 21.7569C30.9744 20.021 32.8799 19.8065 34.8971 20.2213C35.8101 20.409 36.8856 21.1084 37.6649 21.0079C38.5441 20.8944 39.7911 19.5871 40.8284 19.3227C43.6054 18.615 45.4933 20.3858 47.5943 20.2962C48.9185 20.2397 49.7373 19.2793 51.2853 19.3974C52.2879 19.474 53.0262 20.1896 53.9214 20.3335C55.2604 20.5488 55.156 20.2834 56.7338 19.9211C58.264 19.5697 59.6282 20.1297 61.0394 20.0336C62.6378 19.9246 65.3071 17.7698 66.8388 18.985C65.7244 16.7727 68.3779 15.8275 70.5291 15.7263C69.8414 13.7267 69.7355 11.2164 72.2423 10.183C71.1513 8.45034 71.6567 7.41114 72.7698 6.06308C73.3155 5.40239 74.893 3.68514 76.0211 3.29142C77.5162 2.76943 78.3195 3.59138 79.6676 3.66626C81.1428 3.74808 81.1135 3.5471 82.7432 3.17899C85.2844 2.60535 85.8077 3.51302 87.5761 4.45261C89.7988 5.63355 90.0038 5.29908 90.608 7.86107C91.0186 9.60263 91.6569 11.5298 89.2018 12.2436C91.4589 15.1759 90.8796 24.5689 86.0821 25.7644C87.6823 26.7875 88.3323 28.0518 88.1037 29.7715C87.9705 30.774 87.6566 31.4088 87.6637 32.356C87.6711 33.3188 88.1393 34.0974 87.7956 35.1277C87.557 35.8422 86.9384 36.3127 86.5659 36.9632C85.8092 38.2846 85.6954 39.1389 85.4678 40.7832C85.2147 42.609 84.4975 43.8455 83.6219 45.4653C83.1111 46.4101 82.7987 47.9064 81.8646 48.7615C80.34 50.1573 78.9853 49.2889 77.1631 49.7725C75.3997 50.2405 74.7629 51.7561 72.6382 51.0086C71.3652 50.5571 70.1838 48.9814 70.306 47.97" fill="white"/>
</svg>
