<svg width="100%" height="100%" viewBox="0 0 40 32" fill="none" xmlns="http://www.w3.org/2000/svg">
<g clip-path="url(#clip0_2_147)">
<path d="M4.97103 8.79031C5.39472 8.41684 5.94948 8.03556 6.51084 7.93924C7.37173 7.79156 7.58649 8.392 8.25406 8.48413C8.71794 8.54818 9.18524 7.9592 9.828 7.9052C10.537 7.84573 11.1892 8.28178 11.6558 8.79031C12.0345 7.92427 12.8082 7.80053 13.6528 8.02418C14.2887 8.19271 14.3749 8.39436 14.9052 8.24569C15.2577 8.14684 15.575 7.72911 15.9543 7.59867C17.2067 7.16813 17.5333 8.08942 18.5097 8.16027C19.3597 8.22191 19.9069 7.46244 20.9976 7.83702C21.8719 8.13738 21.3912 8.19458 22.3007 7.97311C22.9233 7.82147 23.4925 7.93618 24.0947 7.87107C24.5982 7.81662 24.2975 7.96658 24.7379 7.68364C24.904 7.57689 25.0087 7.29116 25.1609 7.15609C25.5671 6.7952 25.9445 6.58169 26.4981 6.73027C26.2437 5.74693 26.401 5.13276 26.7348 4.29555C26.9353 3.79288 26.961 4.07731 27.0225 3.51248C27.0677 3.09801 26.8619 2.66953 27.0733 2.26967C27.2861 1.86694 27.9964 1.18076 28.3598 0.822622C29.3856 -0.188149 30.0291 0.694462 31.1012 0.6182C31.7094 0.574987 32.0992 -0.133294 32.8277 0.0222927C33.3223 0.127957 33.4275 0.542231 33.7923 0.771613C34.599 1.27872 35.8498 1.32914 35.5691 2.64418C36.8856 2.77934 41.2287 4.15989 39.6649 6.0664C38.7774 7.14791 37.3237 6.72782 36.1784 7.05378C35.7399 7.17858 35.5691 6.794 35.5691 7.42622C35.5691 7.76227 35.5767 8.09947 35.5522 8.43307C35.529 8.74858 35.4963 9.07622 35.4338 9.38618C35.3433 9.83591 35.225 10.3356 34.9598 10.714C34.7234 11.0517 34.4906 11.3002 34.08 11.4293C34.7805 11.9988 34.9597 12.675 34.8414 13.5576C34.7704 14.0881 34.7018 14.2768 34.7231 14.7835C34.7438 15.2773 34.8913 15.6924 34.7231 16.1965C34.5758 16.6379 34.1609 16.8849 33.9952 17.269C33.7344 17.8738 33.8391 18.7482 33.7246 19.4483C33.5863 20.294 33.1386 20.7852 32.8277 21.4912C32.1104 23.1195 32.2907 23.0049 30.56 23.4321C29.0635 23.8015 27.8041 24.8107 26.8366 22.8022C26.314 23.3459 25.5427 23.6364 24.792 23.6364C23.6951 23.6364 23.6131 23.6328 22.7072 24.062C22.0934 24.3528 21.5192 24.5088 20.8287 24.3687C20.1682 24.2347 19.6578 23.5189 19.0854 23.398C18.6742 23.3111 18.4867 23.5678 18.0193 23.7557C16.8133 24.2408 16.0826 23.4857 15.0405 23.5003C14.3686 23.5097 13.5753 24.3347 12.6798 24.3347C12.2937 24.3347 11.1488 24.0162 10.8097 24.1473C10.5648 24.2419 10.3632 24.8372 10.1328 25.0837C9.31126 25.9624 8.80777 25.4011 7.86501 25.6456C7.1953 25.8192 6.84214 26.6667 5.8932 26.6667C5.0132 26.6667 3.80771 26.1862 3.10935 25.6624C2.32792 25.0765 2.55152 24.5234 2.16159 23.8747C1.50726 22.7861 0.619418 22.421 0.468975 20.9633C0.399348 20.2883 0.75809 19.5319 0.672179 18.9031C0.625989 18.565 0.340111 18.4218 0.215365 18.0521C-0.103661 17.1062 0.466723 16.4483 0.418272 15.6343C0.338248 14.2891 -0.437693 13.4727 0.350605 12.0591C1.50677 9.98724 2.0387 7.79262 4.97103 8.79107" fill="black"/>
<path d="M5.85006 25.3333H7.98936C8.15654 25.3333 8.06536 26.7372 8.06536 26.9196V29.9574C8.06536 30.2425 8.26784 31.6842 8.06536 31.8968C7.84408 32.1291 6.27899 31.8968 5.92606 31.8968C5.75887 31.8968 5.85006 30.4929 5.85006 30.3105V25.3344" fill="black"/>
<path d="M29.1262 21.8034C29.4198 21.8034 31.3442 21.7083 31.3442 21.8846V24.9139V29.5376C31.3442 29.9091 31.5965 31.6417 31.3442 31.9291C31.1888 32.106 29.1262 31.9029 29.1262 31.8479V28.8186V21.8026" fill="black"/>
<path fill-rule="evenodd" clip-rule="evenodd" d="M27.3048 21.3218C26.5558 22.1727 25.5307 22.4935 24.4042 22.4206C23.7336 22.3772 23.4741 22.3167 22.9026 22.4871C22.4986 22.6076 22.1853 22.8985 21.7426 22.97C20.4542 23.178 19.5497 22.0593 18.603 22.1878C17.5563 22.3299 16.9576 22.6666 15.8047 22.4372C15.3108 22.3389 15.2993 22.1796 14.8491 22.2709C14.3703 22.3682 13.8369 22.8668 13.3305 23.0199C12.3947 23.3027 11.4353 23.2688 10.6689 22.6371C9.52229 24.8814 5.78827 25.6263 3.75844 24.0521C3.50898 23.8586 3.32151 23.6721 3.16123 23.4028C3.09142 23.2854 3.05889 23.1209 3.05889 22.9784C3.05889 22.4986 2.93253 22.7027 2.64945 22.3209C1.90422 21.3155 1.25283 20.7231 1.30128 19.3577C1.31532 18.9612 1.62618 18.3459 1.55727 17.9763C1.52355 17.7953 1.22564 17.6553 1.16493 17.4435C0.971822 16.7703 1.13141 16.367 1.18193 15.7121C1.24403 14.9084 0.00689512 12.0423 1.57427 11.7339C1.76391 10.7539 2.16565 9.81791 3.19524 9.50302C3.95363 9.27102 4.58206 9.76351 5.24287 9.65302C5.60365 9.59275 6.00183 9.12867 6.40326 9.00382C7.40023 8.69382 8.16582 9.44227 8.8259 9.35342C9.25849 9.29515 9.55751 8.8872 10.063 8.8872C10.5929 8.8872 10.8807 9.30267 11.3341 9.38671C11.4238 9.40329 11.5937 9.6052 11.6583 9.66973C12.0289 8.89822 12.7689 8.80289 13.5523 8.98724C13.9068 9.07067 14.3245 9.38151 14.6271 9.33684C14.9686 9.2864 15.4529 8.70538 15.8557 8.58787C16.9341 8.27333 17.6673 9.06035 18.4832 9.02053C18.9975 8.99542 19.3155 8.56858 19.9166 8.62107C20.306 8.65511 20.5927 8.97315 20.9403 9.03711C21.4603 9.1328 21.4198 9.01484 22.0325 8.85382C22.6268 8.69764 23.1566 8.94653 23.7046 8.90382C24.3254 8.85538 25.362 7.89769 25.9568 8.43778C25.524 7.45453 26.5545 7.03444 27.3899 6.98947C27.1229 6.10075 27.0817 4.98507 28.0553 4.52578C27.6316 3.75571 27.8278 3.29384 28.2601 2.6947C28.472 2.40106 29.0847 1.63784 29.5228 1.46285C30.1034 1.23086 30.4153 1.59617 30.9389 1.62945C31.5118 1.66581 31.5004 1.57649 32.1333 1.41288C33.1202 1.15793 33.3234 1.56134 34.0101 1.97894C34.8733 2.5038 34.9529 2.35515 35.1876 3.49381C35.347 4.26783 35.5949 5.12435 34.6415 5.4416C35.518 6.74484 35.293 10.9195 33.4299 11.4508C34.0514 11.9056 34.3038 12.4675 34.215 13.2318C34.1633 13.6773 34.0414 13.9595 34.0442 14.3804C34.047 14.8084 34.2289 15.1544 34.0954 15.6123C34.0027 15.9299 33.7625 16.139 33.6178 16.4281C33.324 17.0154 33.2798 17.3951 33.1914 18.1259C33.0931 18.9373 32.8146 19.4869 32.4745 20.2068C32.2762 20.6267 32.1548 21.2917 31.7921 21.6718C31.2 22.2921 30.6739 21.9062 29.9663 22.1211C29.2814 22.3291 29.0341 23.0027 28.209 22.6705C27.7146 22.4698 27.2558 21.7695 27.3033 21.32" fill="white"/>
</g>
<defs>
<clipPath id="clip0_2_147">
<rect width="40" height="32" fill="white"/>
</clipPath>
</defs>
</svg>
