<svg width="100%" height="100%" viewBox="0 0 24 15" fill="none" xmlns="http://www.w3.org/2000/svg">
<path d="M0.505676 14.9999V13.7215L5.30681 8.46584C5.87026 7.85031 6.33427 7.31527 6.69886 6.86073C7.06344 6.40145 7.33333 5.97058 7.50852 5.56812C7.68844 5.16092 7.7784 4.73478 7.7784 4.28971C7.7784 3.77834 7.6553 3.33563 7.40909 2.96158C7.16761 2.58753 6.83617 2.2987 6.41477 2.0951C5.99337 1.89151 5.51988 1.78971 4.99431 1.78971C4.4356 1.78971 3.94791 1.90571 3.53124 2.13772C3.11931 2.36499 2.79971 2.68459 2.57244 3.09652C2.3499 3.50846 2.23863 3.99141 2.23863 4.54539H0.562494C0.562494 3.69312 0.758991 2.94501 1.15198 2.30107C1.54498 1.65713 2.08001 1.15524 2.7571 0.795388C3.43891 0.435539 4.20359 0.255615 5.05113 0.255615C5.9034 0.255615 6.65861 0.435539 7.31676 0.795388C7.9749 1.15524 8.491 1.64056 8.86505 2.25135C9.2391 2.86215 9.42613 3.5416 9.42613 4.28971C9.42613 4.82474 9.32907 5.34795 9.13494 5.85931C8.94554 6.36594 8.6141 6.93175 8.14062 7.55675C7.67187 8.17702 7.02083 8.93459 6.18749 9.82948L2.92045 13.3238V13.4374H9.68181V14.9999H0.505676Z" fill="black"/>
<path d="M13.8651 13.1391C13.5147 13.1391 13.214 13.0137 12.9631 12.7627C12.7121 12.5118 12.5866 12.2111 12.5866 11.8607C12.5866 11.5104 12.7121 11.2097 12.9631 10.9587C13.214 10.7078 13.5147 10.5823 13.8651 10.5823C14.2154 10.5823 14.5161 10.7078 14.767 10.9587C15.018 11.2097 15.1435 11.5104 15.1435 11.8607C15.1435 12.0927 15.0843 12.3058 14.9659 12.4999C14.8523 12.6941 14.6984 12.8503 14.5043 12.9687C14.3149 13.0823 14.1018 13.1391 13.8651 13.1391ZM13.8651 5.78118C13.5147 5.78118 13.214 5.65571 12.9631 5.40476C12.7121 5.15382 12.5866 4.85315 12.5866 4.50277C12.5866 4.1524 12.7121 3.85173 12.9631 3.60079C13.214 3.34984 13.5147 3.22437 13.8651 3.22437C14.2154 3.22437 14.5161 3.34984 14.767 3.60079C15.018 3.85173 15.1435 4.1524 15.1435 4.50277C15.1435 4.73478 15.0843 4.94785 14.9659 5.14198C14.8523 5.33611 14.6984 5.49236 14.5043 5.61073C14.3149 5.72437 14.1018 5.78118 13.8651 5.78118Z" fill="black"/>
<path d="M23.2365 0.454479V14.9999H21.4751V2.30107H21.3899L17.8388 4.65902V2.86925L21.4751 0.454479H23.2365Z" fill="black"/>
</svg>
