<svg width="24" height="16" viewBox="0 0 24 16" fill="none" xmlns="http://www.w3.org/2000/svg">
<path d="M5.42045 15.1989C4.48295 15.1989 3.64725 15.0379 2.91335 14.7159C2.18419 14.3939 1.60417 13.9465 1.1733 13.3736C0.747159 12.7959 0.515152 12.1259 0.477273 11.3636H2.26705C2.30492 11.8324 2.46591 12.2372 2.75 12.5781C3.03409 12.9143 3.40578 13.1747 3.86506 13.3594C4.32434 13.544 4.83333 13.6364 5.39205 13.6364C6.01705 13.6364 6.57102 13.5275 7.05398 13.3097C7.53693 13.0919 7.91572 12.7888 8.19034 12.4006C8.46496 12.0123 8.60227 11.5625 8.60227 11.0511C8.60227 10.5161 8.4697 10.045 8.20455 9.63778C7.93939 9.22585 7.55114 8.90388 7.03977 8.67188C6.52841 8.43987 5.90341 8.32386 5.16477 8.32386H4V6.76136H5.16477C5.74242 6.76136 6.24905 6.6572 6.68466 6.44886C7.125 6.24053 7.46828 5.94697 7.71449 5.56818C7.96544 5.18939 8.09091 4.74432 8.09091 4.23295C8.09091 3.74053 7.98201 3.31203 7.7642 2.94744C7.5464 2.58286 7.23864 2.29877 6.84091 2.09517C6.44792 1.89157 5.9839 1.78977 5.44886 1.78977C4.94697 1.78977 4.47349 1.8821 4.02841 2.06676C3.58807 2.24669 3.22822 2.50947 2.94886 2.85511C2.66951 3.19602 2.51799 3.60795 2.49432 4.09091H0.789773C0.818182 3.3286 1.04782 2.66098 1.47869 2.08807C1.90956 1.51042 2.47301 1.06061 3.16903 0.738636C3.86979 0.416666 4.6392 0.255681 5.47727 0.255681C6.37689 0.255681 7.14867 0.437973 7.79261 0.802556C8.43655 1.1624 8.93134 1.63826 9.27699 2.23011C9.62263 2.82197 9.79545 3.46117 9.79545 4.14773C9.79545 4.96686 9.58002 5.66525 9.14915 6.2429C8.72301 6.82055 8.14299 7.22064 7.40909 7.44318V7.55682C8.32765 7.70833 9.04498 8.09896 9.56108 8.72869C10.0772 9.35369 10.3352 10.1278 10.3352 11.0511C10.3352 11.8419 10.1198 12.5521 9.68892 13.1818C9.26278 13.8068 8.6804 14.2992 7.94176 14.6591C7.20313 15.0189 6.36269 15.1989 5.42045 15.1989ZM14.4901 13.1392C14.1397 13.1392 13.839 13.0137 13.5881 12.7628C13.3371 12.5118 13.2116 12.2112 13.2116 11.8608C13.2116 11.5104 13.3371 11.2098 13.5881 10.9588C13.839 10.7079 14.1397 10.5824 14.4901 10.5824C14.8404 10.5824 15.1411 10.7079 15.392 10.9588C15.643 11.2098 15.7685 11.5104 15.7685 11.8608C15.7685 12.0928 15.7093 12.3059 15.5909 12.5C15.4773 12.6941 15.3234 12.8504 15.1293 12.9688C14.9399 13.0824 14.7268 13.1392 14.4901 13.1392ZM14.4901 5.78125C14.1397 5.78125 13.839 5.65578 13.5881 5.40483C13.3371 5.15388 13.2116 4.85322 13.2116 4.50284C13.2116 4.15246 13.3371 3.8518 13.5881 3.60085C13.839 3.34991 14.1397 3.22443 14.4901 3.22443C14.8404 3.22443 15.1411 3.34991 15.392 3.60085C15.643 3.8518 15.7685 4.15246 15.7685 4.50284C15.7685 4.73485 15.7093 4.94792 15.5909 5.14205C15.4773 5.33617 15.3234 5.49242 15.1293 5.6108C14.9399 5.72443 14.7268 5.78125 14.4901 5.78125ZM23.8615 0.454545V15H22.1001V2.30114H22.0149L18.4638 4.65909V2.86932L22.1001 0.454545H23.8615Z" fill="black"/>
</svg>
