<svg width="100%" height="100%" viewBox="0 0 61 57" fill="none" xmlns="http://www.w3.org/2000/svg">
<path d="M5.27253 52.641C2.36059 52.641 0 50.9695 0 48.9076L0 3.73341C0 1.6715 2.36059 3.8743e-07 5.27253 3.8743e-07C8.18447 3.8743e-07 10.5451 1.6715 10.5451 3.73341L10.5451 48.9076C10.5451 50.9695 8.18447 52.641 5.27253 52.641Z" fill="#D16400"/>
<path d="M0 8.21349L0 4.48009H10.5451L10.5451 8.21349H0Z" fill="#5B2C00"/>
<path d="M0 45.5476L0 41.8141H10.5451V45.5476H0Z" fill="#5B2C00"/>
<path d="M0 38.0807L0 34.3473H10.5451L10.5451 38.0807H0Z" fill="#5B2C00"/>
<path d="M0 30.6139L0 26.8805H10.5451V30.6139H0Z" fill="#5B2C00"/>
<path d="M0 23.1471L0 19.4137H10.5451V23.1471H0Z" fill="#5B2C00"/>
<path d="M0 15.6803L0 11.9469H10.5451V15.6803H0Z" fill="#5B2C00"/>
<path d="M13.6363 53.8867C12.1803 51.3648 12.4476 48.4848 14.2332 47.4538L53.3552 24.8667C55.1409 23.8358 57.7688 25.0443 59.2247 27.5661C60.6807 30.088 60.4134 32.968 58.6278 33.999L19.5058 56.5861C17.7201 57.617 15.0922 56.4085 13.6363 53.8867Z" fill="#D16400"/>
<path d="M49.4754 27.1067L52.7086 25.24L57.9811 34.3723L54.7479 36.239L49.4754 27.1067Z" fill="#5B2C00"/>
<path d="M17.1431 45.7738L20.3764 43.9071L25.6489 53.0394L22.4157 54.9061L17.1431 45.7738Z" fill="#5B2C00"/>
<path d="M23.6096 42.0404L26.8428 40.1737L32.1153 49.306L28.8821 51.1727L23.6096 42.0404Z" fill="#5B2C00"/>
<path d="M30.076 38.307L33.3092 36.4403L38.5818 45.5725L35.3486 47.4393L30.076 38.307Z" fill="#5B2C00"/>
<path d="M36.5425 34.5736L39.7757 32.7069L45.0482 41.8391L41.815 43.7058L36.5425 34.5736Z" fill="#5B2C00"/>
<path d="M43.0089 30.8402L46.2421 28.9734L51.5147 38.1057L48.2814 39.9724L43.0089 30.8402Z" fill="#5B2C00"/>
</svg>
