<svg width="100%" height="100%" viewBox="0 0 56 61" fill="none" xmlns="http://www.w3.org/2000/svg">
<path d="M1.63626 29.8867C0.180296 27.3648 0.447564 24.4848 2.23322 23.4538L41.3552 0.866703C43.1409 -0.164248 45.7688 1.04433 47.2247 3.56614C48.6807 6.08796 48.4134 8.96804 46.6278 9.99899L7.50575 32.5861C5.72009 33.617 3.09223 32.4085 1.63626 29.8867Z" fill="#D16400"/>
<path d="M37.4754 3.10675L40.7086 1.24004L45.9811 10.3723L42.7479 12.239L37.4754 3.10675Z" fill="#5B2C00"/>
<path d="M5.14313 21.7738L8.37635 19.9071L13.6489 29.0394L10.4157 30.9061L5.14313 21.7738Z" fill="#5B2C00"/>
<path d="M11.6096 18.0404L14.8428 16.1737L20.1153 25.306L16.8821 27.1727L11.6096 18.0404Z" fill="#5B2C00"/>
<path d="M18.076 14.307L21.3092 12.4403L26.5818 21.5725L23.3486 23.4393L18.076 14.307Z" fill="#5B2C00"/>
<path d="M24.5425 10.5736L27.7757 8.70686L33.0482 17.8391L29.815 19.7058L24.5425 10.5736Z" fill="#5B2C00"/>
<path d="M31.0089 6.84015L34.2421 4.97345L39.5147 14.1057L36.2814 15.9724L31.0089 6.84015Z" fill="#5B2C00"/>
<path d="M50.2725 60.641C47.3606 60.641 45 58.9695 45 56.9076V11.7334C45 9.6715 47.3606 8 50.2725 8C53.1845 8 55.5451 9.6715 55.5451 11.7334V56.9076C55.5451 58.9695 53.1845 60.641 50.2725 60.641Z" fill="#D16400"/>
<path d="M45 16.2135V12.4801H55.5451V16.2135H45Z" fill="#5B2C00"/>
<path d="M45 53.5475V49.8141H55.5451V53.5475H45Z" fill="#5B2C00"/>
<path d="M45 46.0807V42.3473H55.5451V46.0807H45Z" fill="#5B2C00"/>
<path d="M45 38.6139V34.8805H55.5451V38.6139H45Z" fill="#5B2C00"/>
<path d="M45 31.1471V27.4137H55.5451V31.1471H45Z" fill="#5B2C00"/>
<path d="M45 23.6803V19.9469H55.5451V23.6803H45Z" fill="#5B2C00"/>
</svg>
