<svg width="91" height="99" viewBox="0 0 91 99" fill="none" xmlns="http://www.w3.org/2000/svg">
<path d="M87.3102 70.0047C85.5352 72.1201 82.3814 72.396 80.266 70.621L51.8392 46.7681C49.7239 44.9931 49.448 41.8393 51.223 39.7239L52.8106 37.8318C54.5857 35.7164 57.7394 35.4405 59.8548 37.2155L88.2816 61.0684C90.3969 62.8434 90.6729 65.9972 88.8979 68.1125L87.3102 70.0047Z" fill="#D16400"/>
<path d="M60.4522 53.9651L68.5149 44.3564L70.6769 46.1705L62.6143 55.7792L60.4522 53.9651Z" fill="#5B2C00"/>
<path d="M69.7672 61.7893L77.9072 52.0884L80.0692 53.9026L71.9292 63.6035L69.7672 61.7893Z" fill="#5B2C00"/>
<path d="M65.1071 57.872L73.2182 48.2055L75.5164 50.1339L67.4052 59.8004L65.1071 57.872Z" fill="#5B2C00"/>
<path d="M55.7893 50.0512L63.791 40.5151L66.0891 42.4435L58.0874 51.9795L55.7893 50.0512Z" fill="#5B2C00"/>
<path d="M32.0766 98.6765C29.3256 98.4358 27.2907 96.0106 27.5314 93.2597L31.0273 53.3013C31.2679 50.5504 33.6931 48.5154 36.444 48.7561L38.9081 48.9717C41.659 49.2123 43.694 51.6375 43.4533 54.3884L39.9574 94.3468C39.7167 97.0978 37.2915 99.1327 34.5406 98.892L32.0766 98.6765Z" fill="#D16400"/>
<path d="M41.6422 74.9332L29.2847 73.852L29.5307 71.0405L41.8882 72.1216L41.6422 74.9332Z" fill="#5B2C00"/>
<path d="M42.2627 68.2562L29.8369 67.169L30.0829 64.3575L42.5087 65.4446L42.2627 68.2562Z" fill="#5B2C00"/>
<path d="M40.4203 87.8647L27.9593 86.7745L28.2053 83.9629L40.6663 85.0531L40.4203 87.8647Z" fill="#5B2C00"/>
<path d="M41.0835 81.1914L28.6975 80.1078L28.9435 77.2962L41.3295 78.3798L41.0835 81.1914Z" fill="#5B2C00"/>
<path d="M42.9076 61.5813L30.433 60.4899L30.679 57.6783L43.1536 58.7697L42.9076 61.5813Z" fill="#5B2C00"/>
<path d="M40.0319 94.562L27.5574 93.4706L27.8034 90.6591L40.2779 91.7504L40.0319 94.562Z" fill="#5B2C00"/>
<path d="M27.9874 1L22.6978 4.51967L19.1713 8.74327L15.6448 13.6708L13 18.5983V24.2298L13.8816 29.1574L16.0856 34.7888L22.08 39.6522H34.48L50.5 37.6984L48 30L46.5013 25L45.5 19L45 15L46 10.7567L50.9094 1H27.9874Z" fill="#D9D9D9"/>
<path d="M63 36.1739V47.0435L48.12 51.3913L34.48 54L22.08 51.3913L12.78 47.0435L7.82 41.3913H1V34L16.0856 34.7888L22.08 39.6522H34.48L63 36.1739Z" fill="#724B11"/>
<path d="M34.48 39.6522L50.5 37.6984L48 30L46.5013 25L45.5 19L45 15L46 10.7567L50.9094 1H27.9874L22.6978 4.51967L19.1713 8.74327L15.6448 13.6708L13 18.5983V24.2298L13.8816 29.1574L16.0856 34.7888M34.48 39.6522H22.08L16.0856 34.7888M34.48 39.6522L63 36.1739V47.0435L48.12 51.3913L34.48 54L22.08 51.3913L12.78 47.0435L7.82 41.3913H1V34L16.0856 34.7888" stroke="black"/>
</svg>
