<svg width="95" height="89" viewBox="0 0 95 89" fill="none" xmlns="http://www.w3.org/2000/svg">
<path d="M46.6023 53.2487C45.4353 55.7514 42.4604 56.8341 39.9577 55.6671L3.60468 38.7154C1.10198 37.5484 0.0192114 34.5735 1.18624 32.0708L2.23158 29.8291C3.39861 27.3264 6.37351 26.2436 8.87621 27.4106L45.2292 44.3623C47.7319 45.5293 48.8147 48.5042 47.6476 51.0069L46.6023 53.2487Z" fill="#D16400"/>
<path d="M27.5626 36.1392L22.3201 47.3817L19.7622 46.1889L25.0047 34.9464L27.5626 36.1392Z" fill="#5B2C00"/>
<path d="M21.5004 33.2724L16.229 44.5771L13.6711 43.3843L18.9425 32.0797L21.5004 33.2724Z" fill="#5B2C00"/>
<path d="M39.2963 41.7102L34.0099 53.0469L31.452 51.8541L36.7384 40.5175L39.2963 41.7102Z" fill="#5B2C00"/>
<path d="M33.2523 38.8046L27.9977 50.073L25.4398 48.8803L30.6944 37.6119L33.2523 38.8046Z" fill="#5B2C00"/>
<path d="M15.4486 30.3835L10.1565 41.7325L7.59862 40.5397L12.8907 29.1908L15.4486 30.3835Z" fill="#5B2C00"/>
<path d="M45.4569 44.3658L40.1648 55.7148L37.6069 54.522L42.899 43.1731L45.4569 44.3658Z" fill="#5B2C00"/>
<path d="M66.8137 45.6166C64.2189 46.561 61.3496 45.2231 60.4052 42.6282L47.7133 7.75761C46.7689 5.16272 48.1068 2.29351 50.7017 1.34904L53.0227 0.504255C55.6176 -0.440208 58.4868 0.897728 59.4313 3.49262L72.1231 38.3632C73.0676 40.9581 71.7297 43.8273 69.1348 44.7718L66.8137 45.6166Z" fill="#D16400"/>
<path d="M51.5739 18.2969L63.3607 14.0069L64.326 16.659L52.5392 20.949L51.5739 18.2969Z" fill="#5B2C00"/>
<path d="M55.7288 29.7304L67.6286 25.3992L68.5939 28.0513L56.694 32.3825L55.7288 29.7304Z" fill="#5B2C00"/>
<path d="M53.6516 24.0078L65.5094 19.692L66.5354 22.511L54.6777 26.8269L53.6516 24.0078Z" fill="#5B2C00"/>
<path d="M49.4926 12.5759L61.1903 8.31824L62.2164 11.1373L50.5187 15.3949L49.4926 12.5759Z" fill="#5B2C00"/>
<path d="M58.9874 35L53.6978 38.5197L50.1713 42.7433L46.6448 47.6708L44 52.5983V58.2298L44.8816 63.1574L47.0856 68.7888L53.08 73.6522H65.48L81.5 71.6984L79 64L77.5013 59L76.5 53L76 49L77 44.7567L81.9094 35H58.9874Z" fill="#D9D9D9"/>
<path d="M94 70.1739V81.0435L79.12 85.3913L65.48 88L53.08 85.3913L43.78 81.0435L38.82 75.3913H32V68L47.0856 68.7888L53.08 73.6522H65.48L94 70.1739Z" fill="#724B11"/>
<path d="M65.48 73.6522L81.5 71.6984L79 64L77.5013 59L76.5 53L76 49L77 44.7567L81.9094 35H58.9874L53.6978 38.5197L50.1713 42.7433L46.6448 47.6708L44 52.5983V58.2298L44.8816 63.1574L47.0856 68.7888M65.48 73.6522H53.08L47.0856 68.7888M65.48 73.6522L94 70.1739V81.0435L79.12 85.3913L65.48 88L53.08 85.3913L43.78 81.0435L38.82 75.3913H32V68L47.0856 68.7888" stroke="black"/>
</svg>
