<svg width="100%" height="100%" viewBox="0 0 57 60" fill="none" xmlns="http://www.w3.org/2000/svg">
<path d="M51.2725 52.641C48.3606 52.641 46 50.9695 46 48.9076V3.73341C46 1.6715 48.3606 3.8743e-07 51.2725 3.8743e-07C54.1845 3.8743e-07 56.5451 1.6715 56.5451 3.73341V48.9076C56.5451 50.9695 54.1845 52.641 51.2725 52.641Z" fill="#D16400"/>
<path d="M46 8.21349V4.48009H56.5451V8.21349H46Z" fill="#5B2C00"/>
<path d="M46 45.5476V41.8141H56.5451V45.5476H46Z" fill="#5B2C00"/>
<path d="M46 38.0807V34.3473H56.5451V38.0807H46Z" fill="#5B2C00"/>
<path d="M46 30.6139V26.8805H56.5451V30.6139H46Z" fill="#5B2C00"/>
<path d="M46 23.1471V19.4137H56.5451V23.1471H46Z" fill="#5B2C00"/>
<path d="M46 15.6803V11.9469H56.5451V15.6803H46Z" fill="#5B2C00"/>
<path d="M47.2247 56.8867C45.7688 59.4085 43.1409 60.617 41.3552 59.5861L2.23323 36.999C0.447573 35.968 0.180305 33.088 1.63627 30.5661C3.09224 28.0443 5.7201 26.8358 7.50576 27.8667L46.6278 50.4538C48.4134 51.4848 48.6807 54.3648 47.2247 56.8867Z" fill="#D16400"/>
<path d="M6.1131 39.239L2.87988 37.3723L8.15241 28.24L11.3856 30.1067L6.1131 39.239Z" fill="#5B2C00"/>
<path d="M38.4453 57.9061L35.2121 56.0394L40.4846 46.9071L43.7179 48.7738L38.4453 57.9061Z" fill="#5B2C00"/>
<path d="M31.9789 54.1727L28.7457 52.306L34.0182 43.1737L37.2514 45.0404L31.9789 54.1727Z" fill="#5B2C00"/>
<path d="M25.5124 50.4392L22.2792 48.5725L27.5518 39.4403L30.785 41.307L25.5124 50.4392Z" fill="#5B2C00"/>
<path d="M19.046 46.7058L15.8128 44.8391L21.0853 35.7069L24.3185 37.5736L19.046 46.7058Z" fill="#5B2C00"/>
<path d="M12.5796 42.9724L9.34633 41.1057L14.6189 31.9734L17.8521 33.8402L12.5796 42.9724Z" fill="#5B2C00"/>
</svg>

