<svg width="95" height="86" viewBox="0 0 95 86" fill="none" xmlns="http://www.w3.org/2000/svg">
<path d="M47.4697 51.066C46.3026 48.5633 47.3854 45.5884 49.8881 44.4213L86.2411 27.4697C88.7438 26.3026 91.7187 27.3854 92.8857 29.8881L93.931 32.1298C95.0981 34.6325 94.0153 37.6075 91.5126 38.7745L55.1596 55.7262C52.6569 56.8932 49.682 55.8104 48.515 53.3077L47.4697 51.066Z" fill="#D16400"/>
<path d="M72.8148 47.4784L67.5723 36.2359L70.1302 35.0432L75.3727 46.2857L72.8148 47.4784Z" fill="#5B2C00"/>
<path d="M78.9075 44.6773L73.6361 33.3727L76.1939 32.1799L81.4654 43.4845L78.9075 44.6773Z" fill="#5B2C00"/>
<path d="M61.0048 52.886L55.7184 41.5493L58.2763 40.3566L63.5627 51.6932L61.0048 52.886Z" fill="#5B2C00"/>
<path d="M67.1157 50.1237L61.8611 38.8553L64.419 37.6625L69.6735 48.9309L67.1157 50.1237Z" fill="#5B2C00"/>
<path d="M85.0106 41.8983L79.7184 30.5493L82.2763 29.3566L87.5684 40.7055L85.0106 41.8983Z" fill="#5B2C00"/>
<path d="M55.0106 55.8983L49.7184 44.5493L52.2763 43.3566L57.5684 54.7055L55.0106 55.8983Z" fill="#5B2C00"/>
<path d="M31.1326 46.4696C28.4131 45.9901 26.5973 43.3968 27.0768 40.6773L33.5206 4.1326C34.0001 1.41312 36.5934 -0.402719 39.3129 0.0767973L41.7454 0.505708C44.4649 0.985225 46.2807 3.57852 45.8012 6.29799L39.3574 42.8427C38.8778 45.5622 36.2845 47.378 33.5651 46.8985L31.1326 46.4696Z" fill="#D16400"/>
<path d="M31.5943 15.1902L43.947 17.3683L43.4569 20.1477L31.1042 17.9696L31.5943 15.1902Z" fill="#5B2C00"/>
<path d="M29.4758 27.1693L41.947 29.3683L41.4569 32.1477L28.9857 29.9487L29.4758 27.1693Z" fill="#5B2C00"/>
<path d="M30.5382 21.1748L42.9653 23.3661L42.4443 26.3205L30.0173 24.1293L30.5382 21.1748Z" fill="#5B2C00"/>
<path d="M32.6524 9.19496L44.9117 11.3566L44.3908 14.311L32.1315 12.1494L32.6524 9.19496Z" fill="#5B2C00"/>
<path d="M27.9874 32L22.6978 35.5197L19.1713 39.7433L15.6448 44.6708L13 49.5983V55.2298L13.8816 60.1574L16.0856 65.7888L22.08 70.6522H34.48L50.5 68.6984L48 61L46.5013 56L45.5 50L45 46L46 41.7567L50.9094 32H27.9874Z" fill="#D9D9D9"/>
<path d="M63 67.1739V78.0435L48.12 82.3913L34.48 85L22.08 82.3913L12.78 78.0435L7.82 72.3913H1V65L16.0856 65.7888L22.08 70.6522H34.48L63 67.1739Z" fill="#724B11"/>
<path d="M34.48 70.6522L50.5 68.6984L48 61L46.5013 56L45.5 50L45 46L46 41.7567L50.9094 32H27.9874L22.6978 35.5197L19.1713 39.7433L15.6448 44.6708L13 49.5983V55.2298L13.8816 60.1574L16.0856 65.7888M34.48 70.6522H22.08L16.0856 65.7888M34.48 70.6522L63 67.1739V78.0435L48.12 82.3913L34.48 85L22.08 82.3913L12.78 78.0435L7.82 72.3913H1V65L16.0856 65.7888" stroke="black"/>
</svg>
