<svg width="92" height="71" viewBox="0 0 92 71" fill="none" xmlns="http://www.w3.org/2000/svg">
<path d="M4.05853 4.15763C5.003 1.56274 7.87221 0.224802 10.4671 1.16927L45.3377 13.8611C47.9326 14.8056 49.2705 17.6748 48.3261 20.2697L47.4813 22.5907C46.5368 25.1856 43.6676 26.5236 41.0727 25.5791L6.20211 12.8872C3.60722 11.9428 2.26928 9.07356 3.21374 6.47867L4.05853 4.15763Z" fill="#D16400"/>
<path d="M34.7826 10.044L30.4926 21.8308L27.8405 20.8655L32.1305 9.07869L34.7826 10.044Z" fill="#5B2C00"/>
<path d="M23.3534 5.87749L19.0222 17.7774L16.3701 16.8121L20.7013 4.9122L23.3534 5.87749Z" fill="#5B2C00"/>
<path d="M29.0722 7.96469L24.7564 19.8224L21.9373 18.7964L26.2532 6.93863L29.0722 7.96469Z" fill="#5B2C00"/>
<path d="M40.503 12.127L36.2454 23.8247L33.4263 22.7987L37.6839 11.101L40.503 12.127Z" fill="#5B2C00"/>
<path d="M0.353304 64.7819C-0.361405 62.1146 1.22151 59.3729 3.88884 58.6582L42.6332 48.2767C45.3005 47.562 48.0422 49.1449 48.7569 51.8122L49.3971 54.2014C50.1118 56.8687 48.5289 59.6104 45.8615 60.3251L7.11721 70.7066C4.44988 71.4213 1.7082 69.8384 0.993491 67.1711L0.353304 64.7819Z" fill="#D16400"/>
<path d="M25.9363 65.65L22.7258 53.6679L25.4519 52.9375L28.6625 64.9195L25.9363 65.65Z" fill="#5B2C00"/>
<path d="M32.4229 63.9494L29.1946 51.9011L31.9207 51.1707L35.1491 63.219L32.4229 63.9494Z" fill="#5B2C00"/>
<path d="M13.3668 68.9246L10.1293 56.8422L12.8555 56.1118L16.0929 68.1942L13.3668 68.9246Z" fill="#5B2C00"/>
<path d="M19.8645 67.2655L16.6465 55.2558L19.3726 54.5253L22.5906 66.535L19.8645 67.2655Z" fill="#5B2C00"/>
<path d="M38.9158 62.2724L35.6748 50.1769L38.401 49.4464L41.642 61.5419L38.9158 62.2724Z" fill="#5B2C00"/>
<path d="M6.94051 70.8503L3.69953 58.7548L6.42567 58.0243L9.66666 70.1198L6.94051 70.8503Z" fill="#5B2C00"/>
<path d="M55.9874 3L50.6978 6.51967L47.1713 10.7433L43.6448 15.6708L41 20.5983V26.2298L41.8816 31.1574L44.0856 36.7888L50.08 41.6522H62.48L78.5 39.6984L76 32L74.5013 27L73.5 21L73 17L74 12.7567L78.9094 3H55.9874Z" fill="#D9D9D9"/>
<path d="M91 38.1739V49.0435L76.12 53.3913L62.48 56L50.08 53.3913L40.78 49.0435L35.82 43.3913H29V36L44.0856 36.7888L50.08 41.6522H62.48L91 38.1739Z" fill="#724B11"/>
<path d="M62.48 41.6522L78.5 39.6984L76 32L74.5013 27L73.5 21L73 17L74 12.7567L78.9094 3H55.9874L50.6978 6.51967L47.1713 10.7433L43.6448 15.6708L41 20.5983V26.2298L41.8816 31.1574L44.0856 36.7888M62.48 41.6522H50.08L44.0856 36.7888M62.48 41.6522L91 38.1739V49.0435L76.12 53.3913L62.48 56L50.08 53.3913L40.78 49.0435L35.82 43.3913H29V36L44.0856 36.7888" stroke="black"/>
</svg>
