<svg width="92" height="100" viewBox="0 0 92 100" fill="none" xmlns="http://www.w3.org/2000/svg">
<path d="M43.0759 38.6207C44.4566 41.0121 43.6373 44.0701 41.2458 45.4508L9.1089 64.0051C6.71743 65.3858 3.65948 64.5664 2.27877 62.1749L1.04377 60.0358C-0.336941 57.6444 0.482435 54.5864 2.8739 53.2057L35.0108 34.6515C37.4023 33.2708 40.4602 34.0901 41.8409 36.4816L43.0759 38.6207Z" fill="#D16400"/>
<path d="M18.8177 58.373L12.5461 47.5102L14.9903 46.0991L21.2619 56.9618L18.8177 58.373Z" fill="#5B2C00"/>
<path d="M29.356 52.2959L23.0242 41.3289L25.4684 39.9177L31.8002 50.8847L29.356 52.2959Z" fill="#5B2C00"/>
<path d="M24.0811 55.3352L17.7717 44.407L20.3698 42.907L26.6791 53.8352L24.0811 55.3352Z" fill="#5B2C00"/>
<path d="M13.545 61.4161L7.32076 50.6355L9.91883 49.1355L16.1431 59.9161L13.545 61.4161Z" fill="#5B2C00"/>
<path d="M52.7375 98.4206C50.0701 97.7059 48.4872 94.9642 49.2019 92.2968L59.5835 53.5525C60.2982 50.8852 63.0398 49.3023 65.7072 50.017L68.0964 50.6572C70.7637 51.3719 72.3466 54.1136 71.6319 56.7809L61.2504 95.5252C60.5357 98.1926 57.794 99.7755 55.1267 99.0608L52.7375 98.4206Z" fill="#D16400"/>
<path d="M66.2808 76.6991L54.2987 73.4885L55.0292 70.7623L67.0113 73.9729L66.2808 76.6991Z" fill="#5B2C00"/>
<path d="M68.0514 70.2312L56.0031 67.0029L56.7335 64.2768L68.7818 67.5051L68.0514 70.2312Z" fill="#5B2C00"/>
<path d="M62.8319 89.2219L50.7495 85.9845L51.48 83.2583L63.5624 86.4958L62.8319 89.2219Z" fill="#5B2C00"/>
<path d="M64.6439 82.7652L52.6342 79.5472L53.3647 76.8211L65.3744 80.039L64.6439 82.7652Z" fill="#5B2C00"/>
<path d="M69.8455 63.7697L57.7499 60.5287L58.4804 57.8026L70.5759 61.0436L69.8455 63.7697Z" fill="#5B2C00"/>
<path d="M61.2865 95.7501L49.1909 92.5091L49.9214 89.7829L62.0169 93.0239L61.2865 95.7501Z" fill="#5B2C00"/>
<path d="M55.9874 1L50.6978 4.51967L47.1713 8.74327L43.6448 13.6708L41 18.5983V24.2298L41.8816 29.1574L44.0856 34.7888L50.08 39.6522H62.48L78.5 37.6984L76 30L74.5013 25L73.5 19L73 15L74 10.7567L78.9094 1H55.9874Z" fill="#D9D9D9"/>
<path d="M91 36.1739V47.0435L76.12 51.3913L62.48 54L50.08 51.3913L40.78 47.0435L35.82 41.3913H29V34L44.0856 34.7888L50.08 39.6522H62.48L91 36.1739Z" fill="#724B11"/>
<path d="M62.48 39.6522L78.5 37.6984L76 30L74.5013 25L73.5 19L73 15L74 10.7567L78.9094 1H55.9874L50.6978 4.51967L47.1713 8.74327L43.6448 13.6708L41 18.5983V24.2298L41.8816 29.1574L44.0856 34.7888M62.48 39.6522H50.08L44.0856 34.7888M62.48 39.6522L91 36.1739V47.0435L76.12 51.3913L62.48 54L50.08 51.3913L40.78 47.0435L35.82 41.3913H29V34L44.0856 34.7888" stroke="black"/>
</svg>
