<svg width="100%" height="100%" viewBox="0 0 49 65" fill="none" xmlns="http://www.w3.org/2000/svg">
<path d="M1.63626 61.8867C0.180296 59.3648 0.447564 56.4848 2.23322 55.4538L41.3552 32.8667C43.1409 31.8358 45.7688 33.0443 47.2247 35.5661C48.6807 38.088 48.4134 40.968 46.6278 41.999L7.50575 64.5861C5.72009 65.617 3.09223 64.4085 1.63626 61.8867Z" fill="#D16400"/>
<path d="M37.4754 35.1067L40.7086 33.24L45.9811 42.3723L42.7479 44.239L37.4754 35.1067Z" fill="#5B2C00"/>
<path d="M5.14313 53.7738L8.37635 51.9071L13.6489 61.0394L10.4157 62.9061L5.14313 53.7738Z" fill="#5B2C00"/>
<path d="M11.6096 50.0404L14.8428 48.1737L20.1153 57.306L16.8821 59.1727L11.6096 50.0404Z" fill="#5B2C00"/>
<path d="M18.076 46.307L21.3092 44.4403L26.5818 53.5725L23.3486 55.4393L18.076 46.307Z" fill="#5B2C00"/>
<path d="M24.5425 42.5736L27.7757 40.7069L33.0482 49.8391L29.815 51.7058L24.5425 42.5736Z" fill="#5B2C00"/>
<path d="M31.0089 38.8402L34.2421 36.9734L39.5147 46.1057L36.2814 47.9724L31.0089 38.8402Z" fill="#5B2C00"/>
<path d="M47.2247 29.8867C45.7688 32.4085 43.1409 33.617 41.3552 32.5861L2.23323 9.99899C0.447573 8.96804 0.180305 6.08795 1.63627 3.56614C3.09224 1.04433 5.7201 -0.164249 7.50576 0.866702L46.6278 23.4538C48.4134 24.4848 48.6807 27.3648 47.2247 29.8867Z" fill="#D16400"/>
<path d="M6.1131 12.239L2.87988 10.3723L8.15241 1.24004L11.3856 3.10675L6.1131 12.239Z" fill="#5B2C00"/>
<path d="M38.4453 30.9061L35.2121 29.0394L40.4846 19.9071L43.7179 21.7738L38.4453 30.9061Z" fill="#5B2C00"/>
<path d="M31.9789 27.1727L28.7457 25.306L34.0182 16.1737L37.2514 18.0404L31.9789 27.1727Z" fill="#5B2C00"/>
<path d="M25.5124 23.4392L22.2792 21.5725L27.5518 12.4403L30.785 14.307L25.5124 23.4392Z" fill="#5B2C00"/>
<path d="M19.046 19.7058L15.8128 17.8391L21.0853 8.70685L24.3185 10.5736L19.046 19.7058Z" fill="#5B2C00"/>
<path d="M12.5796 15.9724L9.34633 14.1057L14.6189 4.97345L17.8521 6.84015L12.5796 15.9724Z" fill="#5B2C00"/>
</svg>
