<svg width="91" height="76" viewBox="0 0 91 76" fill="none" xmlns="http://www.w3.org/2000/svg">
<path d="M86.7104 13.0291C87.1899 15.7486 85.374 18.3418 82.6546 18.8214L46.1098 25.2652C43.3903 25.7447 40.7971 23.9289 40.3175 21.2094L39.8886 18.7769C39.4091 16.0574 41.225 13.4642 43.9444 12.9846L80.4892 6.54081C83.2086 6.06129 85.8019 7.87713 86.2815 10.5966L86.7104 13.0291Z" fill="#D16400"/>
<path d="M57.1594 23.2934L54.9813 10.9407L57.7607 10.4506L59.9388 22.8033L57.1594 23.2934Z" fill="#5B2C00"/>
<path d="M69.1406 21.1871L66.9416 8.71586L69.721 8.22577L71.9201 20.697L69.1406 21.1871Z" fill="#5B2C00"/>
<path d="M63.1443 22.2389L60.9531 9.81189L63.9075 9.29095L66.0987 21.718L63.1443 22.2389Z" fill="#5B2C00"/>
<path d="M51.1638 24.3496L49.0022 12.0903L51.9566 11.5693L54.1183 23.8287L51.1638 24.3496Z" fill="#5B2C00"/>
<path d="M88.6023 72.2487C87.4352 74.7514 84.4603 75.8341 81.9576 74.6671L45.6047 57.7155C43.102 56.5484 42.0192 53.5735 43.1862 51.0708L44.2316 48.8291C45.3986 46.3264 48.3735 45.2436 50.8762 46.4106L87.2292 63.3623C89.7319 64.5293 90.8146 67.5042 89.6476 70.0069L88.6023 72.2487Z" fill="#D16400"/>
<path d="M69.5625 55.1392L64.3201 66.3817L61.7622 65.189L67.0047 53.9464L69.5625 55.1392Z" fill="#5B2C00"/>
<path d="M63.5004 52.2724L58.229 63.5771L55.6711 62.3843L60.9425 51.0797L63.5004 52.2724Z" fill="#5B2C00"/>
<path d="M81.2963 60.7103L76.0099 72.0469L73.452 70.8541L78.7384 59.5175L81.2963 60.7103Z" fill="#5B2C00"/>
<path d="M75.2523 57.8046L69.9977 69.073L67.4398 67.8803L72.6944 56.6119L75.2523 57.8046Z" fill="#5B2C00"/>
<path d="M57.4486 49.3835L52.1565 60.7325L49.5986 59.5397L54.8907 48.1908L57.4486 49.3835Z" fill="#5B2C00"/>
<path d="M87.4569 63.3658L82.1647 74.7148L79.6069 73.5221L84.899 62.1731L87.4569 63.3658Z" fill="#5B2C00"/>
<path d="M27.9874 1L22.6978 4.51967L19.1713 8.74327L15.6448 13.6708L13 18.5983V24.2298L13.8816 29.1574L16.0856 34.7888L22.08 39.6522H34.48L50.5 37.6984L48 30L46.5013 25L45.5 19L45 15L46 10.7567L50.9094 1H27.9874Z" fill="#D9D9D9"/>
<path d="M63 36.1739V47.0435L48.12 51.3913L34.48 54L22.08 51.3913L12.78 47.0435L7.82 41.3913H1V34L16.0856 34.7888L22.08 39.6522H34.48L63 36.1739Z" fill="#724B11"/>
<path d="M34.48 39.6522L50.5 37.6984L48 30L46.5013 25L45.5 19L45 15L46 10.7567L50.9094 1H27.9874L22.6978 4.51967L19.1713 8.74327L15.6448 13.6708L13 18.5983V24.2298L13.8816 29.1574L16.0856 34.7888M34.48 39.6522H22.08L16.0856 34.7888M34.48 39.6522L63 36.1739V47.0435L48.12 51.3913L34.48 54L22.08 51.3913L12.78 47.0435L7.82 41.3913H1V34L16.0856 34.7888" stroke="black"/>
</svg>
