<svg width="100%" height="100%" viewBox="0 0 56 63" fill="none" xmlns="http://www.w3.org/2000/svg">
<path d="M54.2247 29.8867C52.7688 32.4085 50.1409 33.617 48.3552 32.5861L9.23323 9.99899C7.44757 8.96804 7.18031 6.08795 8.63627 3.56614C10.0922 1.04433 12.7201 -0.164249 14.5058 0.866702L53.6278 23.4538C55.4134 24.4848 55.6807 27.3648 54.2247 29.8867Z" fill="#D16400"/>
<path d="M13.1131 12.239L9.87988 10.3723L15.1524 1.24004L18.3856 3.10675L13.1131 12.239Z" fill="#5B2C00"/>
<path d="M45.4453 30.9061L42.2121 29.0394L47.4846 19.9071L50.7179 21.7738L45.4453 30.9061Z" fill="#5B2C00"/>
<path d="M38.9789 27.1727L35.7457 25.306L41.0182 16.1737L44.2514 18.0404L38.9789 27.1727Z" fill="#5B2C00"/>
<path d="M32.5124 23.4392L29.2792 21.5725L34.5518 12.4403L37.785 14.307L32.5124 23.4392Z" fill="#5B2C00"/>
<path d="M26.046 19.7058L22.8128 17.8391L28.0853 8.70685L31.3185 10.5736L26.046 19.7058Z" fill="#5B2C00"/>
<path d="M19.5796 15.9724L16.3463 14.1057L21.6189 4.97345L24.8521 6.84015L19.5796 15.9724Z" fill="#5B2C00"/>
<path d="M5.27253 62.641C2.36059 62.641 0 60.9695 0 58.9076L0 13.7334C0 11.6715 2.36059 10 5.27253 10C8.18447 10 10.5451 11.6715 10.5451 13.7334L10.5451 58.9076C10.5451 60.9695 8.18447 62.641 5.27253 62.641Z" fill="#D16400"/>
<path d="M0 18.2135L0 14.4801H10.5451L10.5451 18.2135H0Z" fill="#5B2C00"/>
<path d="M0 55.5476L0 51.8141H10.5451V55.5476H0Z" fill="#5B2C00"/>
<path d="M0 48.0807L0 44.3473H10.5451L10.5451 48.0807H0Z" fill="#5B2C00"/>
<path d="M0 40.6139L0 36.8805H10.5451V40.6139H0Z" fill="#5B2C00"/>
<path d="M0 33.1471L0 29.4137H10.5451V33.1471H0Z" fill="#5B2C00"/>
<path d="M0 25.6803L0 21.9469H10.5451V25.6803H0Z" fill="#5B2C00"/>
</svg>
