<svg width="100%" height="100%" viewBox="0 0 50 65" fill="none" xmlns="http://www.w3.org/2000/svg">
<path d="M1.63626 29.8867C0.180296 27.3648 0.447564 24.4848 2.23322 23.4538L41.3552 0.866701C43.1409 -0.16425 45.7688 1.04433 47.2247 3.56614C48.6807 6.08795 48.4134 8.96804 46.6278 9.99899L7.50575 32.5861C5.72009 33.617 3.09223 32.4085 1.63626 29.8867Z" fill="#D16400"/>
<path d="M37.4754 3.10674L40.7086 1.24004L45.9811 10.3723L42.7479 12.239L37.4754 3.10674Z" fill="#5B2C00"/>
<path d="M5.14313 21.7738L8.37635 19.9071L13.6489 29.0394L10.4157 30.9061L5.14313 21.7738Z" fill="#5B2C00"/>
<path d="M11.6096 18.0404L14.8428 16.1737L20.1153 25.306L16.8821 27.1727L11.6096 18.0404Z" fill="#5B2C00"/>
<path d="M18.076 14.307L21.3092 12.4403L26.5818 21.5725L23.3486 23.4392L18.076 14.307Z" fill="#5B2C00"/>
<path d="M24.5425 10.5736L27.7757 8.70685L33.0482 17.8391L29.815 19.7058L24.5425 10.5736Z" fill="#5B2C00"/>
<path d="M31.0089 6.84015L34.2421 4.97345L39.5147 14.1057L36.2814 15.9724L31.0089 6.84015Z" fill="#5B2C00"/>
<path d="M48.2247 61.8867C46.7688 64.4085 44.1409 65.617 42.3552 64.5861L3.23323 41.999C1.44757 40.968 1.18031 38.088 2.63627 35.5661C4.09224 33.0443 6.7201 31.8358 8.50576 32.8667L47.6278 55.4538C49.4134 56.4848 49.6807 59.3648 48.2247 61.8867Z" fill="#D16400"/>
<path d="M7.1131 44.239L3.87988 42.3723L9.15241 33.24L12.3856 35.1067L7.1131 44.239Z" fill="#5B2C00"/>
<path d="M39.4453 62.9061L36.2121 61.0394L41.4846 51.9071L44.7179 53.7738L39.4453 62.9061Z" fill="#5B2C00"/>
<path d="M32.9789 59.1727L29.7457 57.306L35.0182 48.1737L38.2514 50.0404L32.9789 59.1727Z" fill="#5B2C00"/>
<path d="M26.5124 55.4392L23.2792 53.5725L28.5518 44.4403L31.785 46.307L26.5124 55.4392Z" fill="#5B2C00"/>
<path d="M20.046 51.7058L16.8128 49.8391L22.0853 40.7069L25.3185 42.5736L20.046 51.7058Z" fill="#5B2C00"/>
<path d="M13.5796 47.9724L10.3463 46.1057L15.6189 36.9734L18.8521 38.8402L13.5796 47.9724Z" fill="#5B2C00"/>
</svg>
