<svg width="100%" height="100%" viewBox="0 0 64 55" fill="none" xmlns="http://www.w3.org/2000/svg">
<path d="M27.9874 1L22.6978 4.51967L19.1713 8.7433L15.6448 13.6708L13 18.5983V24.2298L13.8816 29.1574L16.0856 34.7888L22.08 39.6522H34.48L50.5 37.6984L48 30L46.5013 25L45.5 19L45 15L46 10.7567L50.9094 1H27.9874Z" fill="#D9D9D9"/>
<path d="M63 36.1739V47.0435L48.12 51.3913L34.48 54L22.08 51.3913L12.78 47.0435L7.82 41.3913H1V34L16.0856 34.7888L22.08 39.6522H34.48L63 36.1739Z" fill="#724B11"/>
<path d="M34.48 39.6522L50.5 37.6984L48 30L46.5013 25L45.5 19L45 15L46 10.7567L50.9094 1H27.9874L22.6978 4.51967L19.1713 8.7433L15.6448 13.6708L13 18.5983V24.2298L13.8816 29.1574L16.0856 34.7888M34.48 39.6522H22.08L16.0856 34.7888M34.48 39.6522L63 36.1739V47.0435L48.12 51.3913L34.48 54L22.08 51.3913L12.78 47.0435L7.82 41.3913H1V34L16.0856 34.7888" stroke="black"/>
</svg>
