<svg width="49" height="64" viewBox="0 0 49 64" fill="none" xmlns="http://www.w3.org/2000/svg">
<path fill-rule="evenodd" clip-rule="evenodd" d="M38.3162 13.5166C38.3162 18.3469 35.6352 22.8104 31.2627 25.2256C26.8902 27.6408 21.5283 27.6408 17.1558 25.2256C12.7833 22.8104 10.1023 18.3469 10.1023 13.5166C10.1023 8.68621 12.7833 4.22885 17.1558 1.81368C21.5283 -0.604559 26.8902 -0.604559 31.2627 1.81368C35.6352 4.22885 38.3162 8.68621 38.3162 13.5166Z" fill="#00A410"/>
<path fill-rule="evenodd" clip-rule="evenodd" d="M47.3035 56.3294C41.5416 65.8985 6.91133 65.8985 1.14944 56.3294C-4.63211 46.7603 12.6929 18.0341 24.2363 18.0341C35.7601 18.0341 53.0851 46.7603 47.3035 56.3294Z" fill="#00A410"/>
</svg>
