<svg width="34" height="23" viewBox="0 0 34 23" fill="none" xmlns="http://www.w3.org/2000/svg">
<path d="M32.7672 10.5743L17.8331 1.22763C17.348 0.924123 16.6514 0.924123 16.1666 1.22763L12.3414 3.62209V2.3793C12.3414 2.11087 12.0577 1.89403 11.7072 1.89403H8.02618C7.67565 1.89403 7.39193 2.11108 7.39193 2.3793V6.71973L1.23277 10.5743C0.961357 10.7437 0.921843 11.0498 1.14301 11.2574C1.26858 11.3747 1.45116 11.4362 1.63531 11.4362C1.77634 11.4362 1.91783 11.4 2.03582 11.3267L5.23301 9.32522V21.5144C5.23301 21.7827 5.51673 22 5.86653 22H28.1336C28.4835 22 28.7679 21.7827 28.7679 21.5144V9.32551L31.9651 11.327C32.0829 11.4005 32.2248 11.4365 32.3654 11.4365C32.549 11.4365 32.7315 11.3749 32.8571 11.2577C33.0781 11.0498 33.0386 10.7441 32.7672 10.5743ZM8.66016 2.86457H11.0727V4.41562L8.66016 5.92571V2.86457ZM27.4998 21.0287H6.50041V8.53177L17.4 2.14866L27.4998 8.53177V21.0287Z" fill="black"/>
<path d="M8.60002 2.91443V5.97752L11 4.44598V2.91443H8.60002Z" fill="#FF0000"/>
<path d="M6.50041 8.53177V21.0287H27.4998V8.53177L17.4 2.14866L6.50041 8.53177Z" fill="#FF0000"/>
<path d="M32.7672 10.5743L17.8331 1.22763C17.348 0.924123 16.6514 0.924123 16.1666 1.22763L12.3414 3.62209V2.3793C12.3414 2.11087 12.0577 1.89403 11.7072 1.89403H8.02618C7.67565 1.89403 7.39193 2.11108 7.39193 2.3793V6.71973L1.23277 10.5743C0.961357 10.7437 0.921843 11.0498 1.14301 11.2574C1.26858 11.3747 1.45116 11.4362 1.63531 11.4362C1.77634 11.4362 1.91783 11.4 2.03582 11.3267L5.23301 9.32522V21.5144C5.23301 21.7827 5.51673 22 5.86653 22H28.1336C28.4835 22 28.7679 21.7827 28.7679 21.5144V9.32551L31.9651 11.327C32.0829 11.4005 32.2248 11.4365 32.3654 11.4365C32.549 11.4365 32.7315 11.3749 32.8571 11.2577C33.0781 11.0498 33.0386 10.7441 32.7672 10.5743ZM8.66016 2.86457H11.0727V4.41562L8.66016 5.92571V2.86457ZM27.4998 21.0287H6.50041V8.53177L17.4 2.14866L27.4998 8.53177V21.0287Z" stroke="black"/>
<path d="M8.60002 2.91443V5.97752L11 4.44598V2.91443H8.60002Z" stroke="black"/>
<path d="M6.50041 8.53177V21.0287H27.4998V8.53177L17.4 2.14866L6.50041 8.53177Z" stroke="black"/>
</svg>
